<svg width="15" height="14" viewBox="0 0 15 14" fill="none" xmlns="http://www.w3.org/2000/svg">
<path d="M9.0625 1.04028L8.375 0.352783C8.0625 0.0715332 7.59375 0.0715332 7.3125 0.352783L1.21875 6.41528C0.9375 6.72778 0.9375 7.19653 1.21875 7.47778L7.3125 13.5715C7.59375 13.8528 8.0625 13.8528 8.375 13.5715L9.0625 12.884C9.34375 12.5715 9.34375 12.1028 9.0625 11.7903L5.28125 8.19653H14.25C14.6875 8.19653 15 7.88403 15 7.44653V6.44653C15 6.04028 14.6875 5.69653 14.25 5.69653H5.28125L9.0625 2.13403C9.34375 1.82153 9.375 1.35278 9.0625 1.04028Z" fill="white"/>
</svg>
