<svg width="25" height="23" viewBox="0 0 25 23" fill="none" xmlns="http://www.w3.org/2000/svg">
<path d="M11.8712 22.6192C8.89952 22.6192 6.04956 21.4387 3.94828 19.3374C1.84699 17.2361 0.666504 14.3862 0.666504 11.4145C0.666504 8.44285 1.84699 5.59289 3.94828 3.49161C6.04956 1.39032 8.89952 0.209833 11.8712 0.209833C13.9705 0.194374 16.0306 0.778132 17.8097 1.89257L16.7299 3.62421C15.2743 2.71234 13.5888 2.23459 11.8712 2.24705C10.058 2.24705 8.2856 2.78471 6.77801 3.79205C5.27043 4.79938 4.09541 6.23114 3.40155 7.90628C2.70769 9.58141 2.52614 11.4247 2.87987 13.203C3.2336 14.9813 4.10671 16.6148 5.38881 17.8969C6.6709 19.179 8.30439 20.0521 10.0827 20.4058C11.861 20.7596 13.7043 20.578 15.3794 19.8842C17.0546 19.1903 18.4863 18.0153 19.4937 16.5077C20.501 15.0001 21.0387 13.2277 21.0387 11.4145C21.0436 10.6058 20.9513 9.79934 20.7636 9.01264L22.7397 8.51963C22.9677 9.46758 23.0806 10.4396 23.0759 11.4145C23.0724 14.3851 21.8907 17.233 19.7902 19.3336C17.6897 21.4341 14.8418 22.6157 11.8712 22.6192Z" fill="url(#paint0_linear_2_974)"/>
<path d="M11.8734 14.4709C11.6033 14.4709 11.3442 14.3635 11.1532 14.1725L6.35864 9.37789L7.79895 7.93758L11.8734 12.012L23.0781 0.807327L24.5184 2.24764L12.5935 14.1725C12.4026 14.3635 12.1435 14.4709 11.8734 14.4709Z" fill="white"/>
<defs>
<linearGradient id="paint0_linear_2_974" x1="0.666504" y1="11.4144" x2="23.076" y2="11.4144" gradientUnits="userSpaceOnUse">
<stop stop-color="#ED6EA0"/>
<stop offset="1" stop-color="#EC8C69"/>
</linearGradient>
</defs>
</svg>
