<svg width="15" height="15" viewBox="0 0 15 15" fill="none" xmlns="http://www.w3.org/2000/svg">
<path d="M9.73105 7.5L14.7805 2.4507C15.0725 2.15868 15.0725 1.68478 14.7805 1.39228L13.6072 0.21902C13.3152 -0.0730067 12.8413 -0.0730067 12.5487 0.21902L7.49976 5.26878L2.45031 0.219489C2.15828 -0.0725379 1.68436 -0.0725379 1.39186 0.219489L0.219027 1.39228C-0.0730089 1.68431 -0.0730089 2.15821 0.219027 2.4507L5.26848 7.5L0.219027 12.5493C-0.0730089 12.8413 -0.0730089 13.3152 0.219027 13.6077L1.39233 14.781C1.68436 15.073 2.15828 15.073 2.45078 14.781L7.49976 9.73122L12.5492 14.7805C12.8413 15.0725 13.3152 15.0725 13.6077 14.7805L14.781 13.6072C15.073 13.3152 15.073 12.8413 14.781 12.5488L9.73105 7.5Z" fill="#EC8970"/>
<path d="M9.73105 7.5L14.7805 2.4507C15.0725 2.15868 15.0725 1.68478 14.7805 1.39228L13.6072 0.21902C13.3152 -0.0730067 12.8413 -0.0730067 12.5487 0.21902L7.49976 5.26878L2.45031 0.219489C2.15828 -0.0725379 1.68436 -0.0725379 1.39186 0.219489L0.219027 1.39228C-0.0730089 1.68431 -0.0730089 2.15821 0.219027 2.4507L5.26848 7.5L0.219027 12.5493C-0.0730089 12.8413 -0.0730089 13.3152 0.219027 13.6077L1.39233 14.781C1.68436 15.073 2.15828 15.073 2.45078 14.781L7.49976 9.73122L12.5492 14.7805C12.8413 15.0725 13.3152 15.0725 13.6077 14.7805L14.781 13.6072C15.073 13.3152 15.073 12.8413 14.781 12.5488L9.73105 7.5Z" fill="url(#paint0_linear_29_63)"/>
<defs>
<linearGradient id="paint0_linear_29_63" x1="0" y1="7.5" x2="15" y2="7.5" gradientUnits="userSpaceOnUse">
<stop stop-color="#ED6EA0"/>
<stop offset="1" stop-color="#EC8C69"/>
</linearGradient>
</defs>
</svg>
