<svg width="28" height="28" viewBox="0 0 28 28" fill="none" xmlns="http://www.w3.org/2000/svg">
<g clip-path="url(#clip0_2_1336)">
<path d="M23.3373 5.50349C21.6446 4.74013 19.8302 4.1759 17.9329 3.85507C17.916 3.85183 17.8985 3.85392 17.8828 3.86105C17.8672 3.86819 17.8541 3.88002 17.8455 3.8949C17.6132 4.30313 17.3543 4.83527 17.1729 5.25567C15.1606 4.95502 13.1148 4.95502 11.1025 5.25567C10.9004 4.78976 10.6725 4.33546 10.4199 3.8949C10.4113 3.87983 10.3984 3.86774 10.3827 3.86023C10.3671 3.85271 10.3496 3.85014 10.3325 3.85286C8.43624 4.17369 6.62187 4.73791 4.92809 5.50238C4.91352 5.50849 4.90117 5.51892 4.89269 5.53225C1.44982 10.5937 0.506128 15.5301 0.969677 20.4045C0.970967 20.4165 0.974672 20.428 0.980568 20.4385C0.986464 20.4489 0.994427 20.4581 1.00397 20.4654C3.01349 21.9284 5.25483 23.0429 7.63415 23.7622C7.65074 23.7673 7.66848 23.7673 7.68506 23.7622C7.70164 23.757 7.71628 23.747 7.72709 23.7334C8.23909 23.0487 8.69279 22.3223 9.08344 21.5617C9.08886 21.5513 9.09198 21.5399 9.0926 21.5282C9.09321 21.5165 9.09131 21.5048 9.08701 21.4939C9.0827 21.483 9.07611 21.4731 9.06767 21.465C9.05923 21.4568 9.04914 21.4506 9.03808 21.4467C8.3234 21.1775 7.63093 20.8528 6.96704 20.4753C6.95511 20.4685 6.94506 20.4589 6.93779 20.4472C6.93052 20.4356 6.92625 20.4223 6.92537 20.4086C6.92449 20.3949 6.92703 20.3812 6.93276 20.3687C6.93849 20.3562 6.94723 20.3453 6.95819 20.337C7.09759 20.2342 7.23698 20.1268 7.36974 20.0195C7.38169 20.0099 7.39609 20.0037 7.41132 20.0018C7.42656 19.9998 7.44204 20.0021 7.45604 20.0085C11.8006 21.96 16.5057 21.96 20.7994 20.0085C20.8134 20.0018 20.829 19.9991 20.8445 20.0009C20.86 20.0027 20.8746 20.0087 20.8868 20.0184C21.0195 20.1268 21.1578 20.2342 21.2983 20.337C21.3094 20.3451 21.3183 20.3559 21.3242 20.3682C21.3301 20.3806 21.3328 20.3943 21.3322 20.408C21.3315 20.4217 21.3275 20.435 21.3204 20.4468C21.3134 20.4585 21.3035 20.4683 21.2917 20.4753C20.6301 20.8559 19.942 21.1778 19.2195 21.4456C19.2085 21.4496 19.1983 21.4559 19.1899 21.4642C19.1815 21.4724 19.1749 21.4824 19.1706 21.4934C19.1663 21.5044 19.1644 21.5162 19.165 21.528C19.1656 21.5397 19.1688 21.5513 19.1742 21.5617C19.5725 22.3218 20.0283 23.0453 20.5294 23.7323C20.5399 23.7464 20.5544 23.757 20.571 23.7625C20.5876 23.7681 20.6056 23.7683 20.6224 23.7633C23.0058 23.046 25.2508 21.931 27.2625 20.4654C27.2723 20.4585 27.2806 20.4496 27.2867 20.4393C27.2928 20.429 27.2966 20.4175 27.2979 20.4056C27.8511 14.77 26.3708 9.87346 23.3716 5.53447C23.3642 5.52037 23.352 5.50937 23.3373 5.50349ZM9.73285 17.4363C8.42517 17.4363 7.34651 16.2536 7.34651 14.8032C7.34651 13.3517 8.40415 12.1702 9.73285 12.1702C11.0715 12.1702 12.1402 13.3617 12.1192 14.8032C12.1192 16.2547 11.0615 17.4363 9.73285 17.4363ZM18.5558 17.4363C17.247 17.4363 16.1694 16.2536 16.1694 14.8032C16.1694 13.3517 17.226 12.1702 18.5558 12.1702C19.8944 12.1702 20.9631 13.3617 20.9421 14.8032C20.9421 16.2547 19.8955 17.4363 18.5558 17.4363Z" fill="#0046FF"/>
<path d="M23.3373 5.50349C21.6446 4.74013 19.8302 4.1759 17.9329 3.85507C17.916 3.85183 17.8985 3.85392 17.8828 3.86105C17.8672 3.86819 17.8541 3.88002 17.8455 3.8949C17.6132 4.30313 17.3543 4.83527 17.1729 5.25567C15.1606 4.95502 13.1148 4.95502 11.1025 5.25567C10.9004 4.78976 10.6725 4.33546 10.4199 3.8949C10.4113 3.87983 10.3984 3.86774 10.3827 3.86023C10.3671 3.85271 10.3496 3.85014 10.3325 3.85286C8.43624 4.17369 6.62187 4.73791 4.92809 5.50238C4.91352 5.50849 4.90117 5.51892 4.89269 5.53225C1.44982 10.5937 0.506128 15.5301 0.969677 20.4045C0.970967 20.4165 0.974672 20.428 0.980568 20.4385C0.986464 20.4489 0.994427 20.4581 1.00397 20.4654C3.01349 21.9284 5.25483 23.0429 7.63415 23.7622C7.65074 23.7673 7.66848 23.7673 7.68506 23.7622C7.70164 23.757 7.71628 23.747 7.72709 23.7334C8.23909 23.0487 8.69279 22.3223 9.08344 21.5617C9.08886 21.5513 9.09198 21.5399 9.0926 21.5282C9.09321 21.5165 9.09131 21.5048 9.08701 21.4939C9.0827 21.483 9.07611 21.4731 9.06767 21.465C9.05923 21.4568 9.04914 21.4506 9.03808 21.4467C8.3234 21.1775 7.63093 20.8528 6.96704 20.4753C6.95511 20.4685 6.94506 20.4589 6.93779 20.4472C6.93052 20.4356 6.92625 20.4223 6.92537 20.4086C6.92449 20.3949 6.92703 20.3812 6.93276 20.3687C6.93849 20.3562 6.94723 20.3453 6.95819 20.337C7.09759 20.2342 7.23698 20.1268 7.36974 20.0195C7.38169 20.0099 7.39609 20.0037 7.41132 20.0018C7.42656 19.9998 7.44204 20.0021 7.45604 20.0085C11.8006 21.96 16.5057 21.96 20.7994 20.0085C20.8134 20.0018 20.829 19.9991 20.8445 20.0009C20.86 20.0027 20.8746 20.0087 20.8868 20.0184C21.0195 20.1268 21.1578 20.2342 21.2983 20.337C21.3094 20.3451 21.3183 20.3559 21.3242 20.3682C21.3301 20.3806 21.3328 20.3943 21.3322 20.408C21.3315 20.4217 21.3275 20.435 21.3204 20.4468C21.3134 20.4585 21.3035 20.4683 21.2917 20.4753C20.6301 20.8559 19.942 21.1778 19.2195 21.4456C19.2085 21.4496 19.1983 21.4559 19.1899 21.4642C19.1815 21.4724 19.1749 21.4824 19.1706 21.4934C19.1663 21.5044 19.1644 21.5162 19.165 21.528C19.1656 21.5397 19.1688 21.5513 19.1742 21.5617C19.5725 22.3218 20.0283 23.0453 20.5294 23.7323C20.5399 23.7464 20.5544 23.757 20.571 23.7625C20.5876 23.7681 20.6056 23.7683 20.6224 23.7633C23.0058 23.046 25.2508 21.931 27.2625 20.4654C27.2723 20.4585 27.2806 20.4496 27.2867 20.4393C27.2928 20.429 27.2966 20.4175 27.2979 20.4056C27.8511 14.77 26.3708 9.87346 23.3716 5.53447C23.3642 5.52037 23.352 5.50937 23.3373 5.50349ZM9.73285 17.4363C8.42517 17.4363 7.34651 16.2536 7.34651 14.8032C7.34651 13.3517 8.40415 12.1702 9.73285 12.1702C11.0715 12.1702 12.1402 13.3617 12.1192 14.8032C12.1192 16.2547 11.0615 17.4363 9.73285 17.4363ZM18.5558 17.4363C17.247 17.4363 16.1694 16.2536 16.1694 14.8032C16.1694 13.3517 17.226 12.1702 18.5558 12.1702C19.8944 12.1702 20.9631 13.3617 20.9421 14.8032C20.9421 16.2547 19.8955 17.4363 18.5558 17.4363Z" fill="url(#paint0_linear_2_1336)"/>
</g>
<defs>
<linearGradient id="paint0_linear_2_1336" x1="0.859619" y1="13.8094" x2="27.4121" y2="13.8094" gradientUnits="userSpaceOnUse">
<stop stop-color="#ED6EA0"/>
<stop offset="1" stop-color="#EC8C69"/>
</linearGradient>
<clipPath id="clip0_2_1336">
<rect width="26.5517" height="26.5517" fill="white" transform="translate(0.859619 0.533447)"/>
</clipPath>
</defs>
</svg>
