<svg width="160" height="150" viewBox="0 0 160 150" fill="none" xmlns="http://www.w3.org/2000/svg">
<g clip-path="url(#clip0_2_715)">
<path d="M104.149 61.4024C104.488 61.6326 104.888 61.757 105.298 61.7597C105.709 61.7625 106.11 61.6435 106.453 61.4179C106.795 61.1922 107.063 60.8701 107.223 60.4922C107.382 60.1143 107.426 59.6976 107.348 59.2949C107.27 58.8922 107.075 58.5215 106.787 58.2298C106.498 57.9381 106.13 57.7385 105.728 57.6562C105.326 57.574 104.909 57.6127 104.529 57.7676C104.149 57.9225 103.824 58.1865 103.594 58.5263C103.287 58.9813 103.173 59.5397 103.276 60.079C103.38 60.6182 103.694 61.0942 104.149 61.4024Z" fill="#EC8970"/>
<path d="M102.916 71.3207C103.255 71.5499 103.655 71.6734 104.064 71.6754C104.474 71.6774 104.874 71.558 105.216 71.3321C105.557 71.1063 105.824 70.7843 105.982 70.4068C106.14 70.0293 106.183 69.6134 106.105 69.2117C106.027 68.8099 105.831 68.4404 105.542 68.15C105.254 67.8595 104.886 67.6612 104.485 67.58C104.083 67.4989 103.667 67.5386 103.288 67.6942C102.91 67.8497 102.586 68.1141 102.357 68.4538C102.053 68.9087 101.941 69.4653 102.046 70.0024C102.151 70.5394 102.463 71.0133 102.916 71.3207Z" fill="#EC8970"/>
<path d="M109.124 87.3507C109.463 87.5809 109.864 87.7052 110.274 87.708C110.684 87.7107 111.086 87.5917 111.428 87.3661C111.771 87.1405 112.039 86.8183 112.198 86.4404C112.357 86.0625 112.401 85.6458 112.323 85.2431C112.246 84.8404 112.051 84.4698 111.762 84.1781C111.474 83.8864 111.105 83.6868 110.704 83.6045C110.302 83.5222 109.884 83.561 109.505 83.7158C109.125 83.8707 108.799 84.1348 108.57 84.4746C108.262 84.9296 108.148 85.488 108.252 86.0272C108.356 86.5665 108.669 87.0425 109.124 87.3507Z" fill="#EC8970"/>
<path d="M101.015 81.5363C101.355 81.7658 101.755 81.8894 102.165 81.8915C102.575 81.8935 102.977 81.7738 103.319 81.5476C103.661 81.3215 103.929 80.9989 104.087 80.6208C104.246 80.2427 104.289 79.826 104.211 79.4234C104.133 79.0209 103.937 78.6506 103.648 78.3594C103.359 78.0681 102.991 77.8691 102.589 77.7874C102.187 77.7057 101.77 77.745 101.39 77.9004C101.01 78.0557 100.686 78.3201 100.456 78.6602C100.149 79.1158 100.036 79.6746 100.14 80.2138C100.245 80.7531 100.56 81.2288 101.015 81.5363Z" fill="#EC8970"/>
<path d="M92.9384 75.5959C93.2778 75.8261 93.678 75.9505 94.0882 75.9532C94.4984 75.9559 94.9001 75.837 95.2427 75.6113C95.5852 75.3857 95.8531 75.0636 96.0125 74.6856C96.1718 74.3077 96.2155 73.8911 96.1379 73.4884C96.0603 73.0856 95.865 72.715 95.5766 72.4233C95.2883 72.1316 94.9198 71.932 94.518 71.8497C94.1161 71.7674 93.6989 71.8062 93.3191 71.9611C92.9393 72.116 92.6139 72.38 92.3843 72.7198C92.0779 73.1752 91.9643 73.7332 92.0681 74.2721C92.1719 74.811 92.4848 75.2869 92.9384 75.5959Z" fill="#EC8970"/>
<path d="M91.088 85.9781C91.4275 86.2083 91.8277 86.3327 92.2378 86.3354C92.648 86.3381 93.0498 86.2192 93.3923 85.9935C93.7349 85.7679 94.0028 85.4458 94.1621 85.0679C94.3215 84.6899 94.3651 84.2733 94.2875 83.8706C94.2099 83.4679 94.0146 83.0972 93.7263 82.8055C93.4379 82.5138 93.0695 82.3142 92.6677 82.2319C92.2658 82.1497 91.8486 82.1884 91.4688 82.3433C91.0889 82.4982 90.7636 82.7622 90.5339 83.102C90.2264 83.557 90.112 84.1154 90.2159 84.6547C90.3198 85.1939 90.6335 85.6699 91.088 85.9781Z" fill="#EC8970"/>
<path d="M99.0917 91.8802C99.4312 92.1104 99.8313 92.2348 100.242 92.2375C100.652 92.2402 101.053 92.1213 101.396 91.8956C101.739 91.67 102.006 91.3479 102.166 90.97C102.325 90.592 102.369 90.1754 102.291 89.7727C102.214 89.3699 102.018 88.9993 101.73 88.7076C101.442 88.4159 101.073 88.2163 100.671 88.134C100.269 88.0518 99.8522 88.0905 99.4724 88.2454C99.0926 88.4003 98.7673 88.6643 98.5376 89.0041C98.2313 89.4595 98.1176 90.0175 98.2214 90.5564C98.3252 91.0953 98.6381 91.5712 99.0917 91.8802Z" fill="#EC8970"/>
<path d="M109.7 94.3096C109.361 94.0801 108.96 93.9565 108.55 93.9545C108.14 93.9524 107.738 94.0721 107.396 94.2983C107.054 94.5245 106.787 94.847 106.628 95.2251C106.47 95.6032 106.427 96.0199 106.505 96.4225C106.583 96.825 106.779 97.1953 107.068 97.4865C107.356 97.7778 107.725 97.9768 108.127 98.0585C108.529 98.1402 108.946 98.1009 109.325 97.9456C109.705 97.7902 110.03 97.5258 110.259 97.1857C110.412 96.9603 110.519 96.7071 110.573 96.4404C110.628 96.1737 110.629 95.8989 110.577 95.6317C110.525 95.3645 110.421 95.1102 110.271 94.8833C110.12 94.6564 109.926 94.4615 109.7 94.3096Z" fill="#EC8970"/>
<path d="M97.1893 102.091C97.5288 102.321 97.929 102.446 98.3392 102.448C98.7494 102.451 99.1511 102.332 99.4937 102.106C99.8362 101.881 100.104 101.559 100.263 101.181C100.423 100.803 100.466 100.386 100.389 99.9835C100.311 99.5808 100.116 99.2101 99.8276 98.9184C99.5392 98.6267 99.1708 98.4271 98.769 98.3448C98.3671 98.2626 97.9499 98.3013 97.5701 98.4562C97.1903 98.6111 96.8649 98.8751 96.6353 99.2149C96.3277 99.6699 96.2133 100.228 96.3172 100.768C96.4211 101.307 96.7348 101.783 97.1893 102.091Z" fill="#EC8970"/>
<path d="M89.0495 96.3263C89.3889 96.5565 89.7891 96.6808 90.1993 96.6835C90.6095 96.6863 91.0112 96.5673 91.3538 96.3417C91.6963 96.1161 91.9642 95.7939 92.1235 95.416C92.2829 95.0381 92.3265 94.6214 92.249 94.2187C92.1714 93.816 91.976 93.4453 91.6877 93.1537C91.3993 92.862 91.0309 92.6624 90.6291 92.5801C90.2272 92.4978 89.81 92.5365 89.4302 92.6914C89.0504 92.8463 88.725 93.1104 88.4954 93.4502C88.1878 93.9052 88.0734 94.4636 88.1773 95.0028C88.2812 95.5421 88.5949 96.018 89.0495 96.3263Z" fill="#EC8970"/>
<path d="M73.507 83.8427C73.9035 84.093 74.3752 84.1963 74.8401 84.1348C75.305 84.0732 75.7336 83.8506 76.0512 83.5056L72.2787 90.5505C72.0123 90.6011 71.7585 90.7038 71.5318 90.8528C71.3052 91.0017 71.1103 91.1939 70.9581 91.4184C70.7851 91.6913 70.6827 92.003 70.6601 92.3254C70.6375 92.6477 70.6955 92.9706 70.8288 93.265L59.2344 114.912C58.8681 114.871 58.498 114.941 58.1718 115.113C57.8456 115.284 57.5781 115.55 57.4038 115.874C57.2295 116.199 57.1564 116.568 57.1938 116.935C57.2312 117.301 57.3774 117.648 57.6137 117.931L53.5411 125.535C53.2229 126.133 53.0669 126.804 53.0888 127.481C53.1107 128.158 53.3096 128.818 53.6658 129.394C54.005 129.986 54.504 130.471 55.1059 130.793C55.7077 131.114 56.388 131.26 57.0688 131.213L73.8071 130.682L76.5452 130.594L155.324 128.074C156.001 128.053 156.661 127.854 157.237 127.497C157.812 127.14 158.284 126.637 158.604 126.04C158.924 125.443 159.08 124.772 159.058 124.095C159.036 123.417 158.836 122.758 158.477 122.183L132.777 80.768L131.498 78.709L106.642 38.6605C106.296 38.1029 105.813 37.6428 105.239 37.3237C104.665 37.0046 104.02 36.8371 103.363 36.8369L103.239 36.8369C102.562 36.8579 101.903 37.0567 101.327 37.4133C100.752 37.7698 100.28 38.2716 99.9604 38.8682L85.5262 65.8104C85.241 65.842 84.966 65.9347 84.7198 66.0821C84.4736 66.2294 84.262 66.4281 84.0994 66.6645C83.9197 66.9528 83.8191 67.2834 83.8077 67.623C83.7964 67.9625 83.8747 68.2991 84.0348 68.5988L76.5176 82.6285C76.6548 82.233 76.6616 81.8039 76.5369 81.4042C76.4123 81.0045 76.1627 80.6554 75.8249 80.4079C75.6 80.2463 75.3448 80.1314 75.0747 80.0702C74.8045 80.009 74.5247 80.0027 74.2521 80.0516C73.9794 80.1005 73.7193 80.2037 73.4873 80.3551C73.2552 80.5064 73.056 80.7028 72.9013 80.9326C72.7466 81.1624 72.6397 81.4209 72.5869 81.6928C72.534 81.9647 72.5364 82.2444 72.5937 82.5154C72.6511 82.7864 72.7623 83.0431 72.9207 83.2703C73.0792 83.4975 73.2817 83.6906 73.5162 83.838L73.507 83.8427ZM81.2551 90.2135C81.4798 90.3848 81.7373 90.5084 82.0116 90.5766C82.2859 90.6448 82.5713 90.6563 82.8502 90.6102C83.1291 90.5641 83.3956 90.4614 83.6334 90.3086C83.8711 90.1557 84.0751 89.9558 84.2328 89.7213C84.3905 89.4867 84.4985 89.2224 84.5502 88.9445C84.602 88.6667 84.5964 88.3812 84.5337 88.1056C84.471 87.83 84.3527 87.5702 84.1859 87.342C84.0191 87.1138 83.8074 86.9221 83.5638 86.7788C83.4206 86.6818 83.2498 86.7418 83.102 86.6818L94.4702 65.4688C94.907 65.7102 95.4176 65.782 95.9041 65.6704C96.3906 65.5588 96.8189 65.2717 97.1068 64.864C97.4145 64.4083 97.5291 63.8491 97.4252 63.3092C97.3213 62.7692 97.0076 62.2924 96.5527 61.9833C96.4927 61.9463 96.4188 61.9833 96.3541 61.9463L103.604 48.4106L113.406 64.2038L115.429 67.4585L126.511 85.343L128.533 88.5746L135.686 100.116L137.606 103.209L148.397 120.572L97.3007 122.197C97.5624 121.766 97.6499 121.251 97.5452 120.758C97.4405 120.265 97.1516 119.83 96.7374 119.542C96.2948 119.245 95.7526 119.135 95.2292 119.236C94.7057 119.338 94.2436 119.642 93.9438 120.083C93.7357 120.422 93.6394 120.819 93.6684 121.217C93.6974 121.614 93.8502 121.992 94.1054 122.299L76.9516 122.848C77.4483 122.848 77.9288 122.671 78.3054 122.347C78.682 122.023 78.9298 121.575 79.0037 121.083C79.0776 120.592 78.9727 120.091 78.708 119.671C78.4433 119.25 78.0365 118.939 77.5616 118.793C77.0867 118.648 76.5753 118.677 76.1204 118.877C75.6655 119.077 75.2974 119.433 75.0831 119.881C74.8689 120.329 74.8226 120.839 74.9528 121.318C75.083 121.798 75.381 122.214 75.7926 122.492C76.135 122.723 76.5385 122.847 76.9516 122.848L67.7536 123.139C67.3035 122.975 66.8079 122.99 66.3684 123.18L63.4917 123.273L67.6474 115.475C67.7074 115.526 67.7028 115.609 67.7675 115.655C67.9923 115.827 68.2497 115.95 68.5241 116.018C68.7984 116.087 69.0837 116.098 69.3626 116.052C69.6415 116.006 69.908 115.903 70.1458 115.75C70.3836 115.598 70.5875 115.398 70.7452 115.163C70.9029 114.929 71.0109 114.664 71.0627 114.386C71.1144 114.109 71.1088 113.823 71.0461 113.547C70.9835 113.272 70.8651 113.012 70.6983 112.784C70.5315 112.556 70.3198 112.364 70.0762 112.221C69.8869 112.091 69.6652 112.151 69.4528 112.091L81.2366 90.1581C81.2366 90.1581 81.2458 90.2043 81.2551 90.2135Z" fill="#EC8970"/>
<path d="M75.2094 73.4746C75.5488 73.7048 75.949 73.8291 76.3592 73.8319C76.7694 73.8346 77.1712 73.7156 77.5137 73.49C77.8562 73.2644 78.1241 72.9422 78.2835 72.5643C78.4428 72.1864 78.4865 71.7697 78.4089 71.367C78.3313 70.9643 78.136 70.5937 77.8476 70.302C77.5593 70.0103 77.1909 69.8107 76.789 69.7284C76.3871 69.6461 75.9699 69.6849 75.5901 69.8397C75.2103 69.9946 74.8849 70.2587 74.6553 70.5985C74.3477 71.0535 74.2333 71.6119 74.3372 72.1511C74.4411 72.6904 74.7548 73.1664 75.2094 73.4746Z" fill="#EC8970"/>
<path d="M85.7568 59.3839C86.0961 59.612 86.4953 59.7344 86.9042 59.7357C87.313 59.737 87.7131 59.6172 88.0538 59.3914C88.3946 59.1655 88.6608 58.8438 88.8188 58.4668C88.9768 58.0898 89.0195 57.6744 88.9415 57.2732C88.8636 56.8719 88.6685 56.5028 88.3808 56.2123C88.0932 55.9218 87.7259 55.7231 87.3253 55.6412C86.9248 55.5593 86.5089 55.5979 86.1303 55.7522C85.7517 55.9064 85.4273 56.1694 85.1981 56.5078C84.891 56.9634 84.7773 57.5222 84.8821 58.0615C84.9868 58.6007 85.3014 59.0764 85.7568 59.3839Z" fill="#EC8970"/>
<path d="M86.6127 49.4072C86.952 49.6353 87.3513 49.7577 87.7601 49.759C88.169 49.7603 88.569 49.6405 88.9098 49.4147C89.2505 49.1888 89.5167 48.8671 89.6747 48.4901C89.8327 48.1131 89.8754 47.6977 89.7975 47.2965C89.7196 46.8952 89.5244 46.5261 89.2368 46.2356C88.9491 45.9451 88.5818 45.7464 88.1813 45.6645C87.7807 45.5826 87.3649 45.6213 86.9863 45.7755C86.6077 45.9297 86.2833 46.1927 86.054 46.5311C85.7469 46.9867 85.6333 47.5455 85.738 48.0848C85.8428 48.6241 86.1574 49.0997 86.6127 49.4072Z" fill="#EC8970"/>
<path d="M77.4408 53.0909C77.7803 53.3211 78.1804 53.4455 78.5906 53.4482C79.0008 53.4509 79.4026 53.332 79.7451 53.1063C80.0877 52.8807 80.3556 52.5585 80.5149 52.1806C80.6743 51.8027 80.7179 51.3861 80.6403 50.9834C80.5627 50.5806 80.3674 50.21 80.0791 49.9183C79.7907 49.6266 79.4223 49.427 79.0204 49.3447C78.6186 49.2624 78.2013 49.3012 77.8215 49.4561C77.4417 49.611 77.1164 49.875 76.8867 50.2148C76.5792 50.6698 76.4648 51.2282 76.5687 51.7675C76.6726 52.3067 76.9862 52.7827 77.4408 53.0909Z" fill="#EC8970"/>
<path d="M68.3055 56.6523C68.645 56.8819 69.045 57.0058 69.455 57.0081C69.8649 57.0105 70.2663 56.8914 70.6085 56.6657C70.9507 56.4401 71.2183 56.1181 71.3775 55.7404C71.5367 55.3627 71.5804 54.9464 71.503 54.5439C71.4256 54.1414 71.2306 53.7709 70.9426 53.4793C70.6546 53.1876 70.2867 52.9878 69.8852 52.9051C69.4837 52.8225 69.0667 52.8607 68.6869 53.0149C68.3071 53.1691 67.9815 53.4324 67.7514 53.7716C67.5984 53.997 67.4914 54.2505 67.4364 54.5173C67.3815 54.7842 67.3797 55.0592 67.4311 55.3268C67.4826 55.5943 67.5863 55.8491 67.7363 56.0766C67.8864 56.304 68.0798 56.4997 68.3055 56.6523Z" fill="#EC8970"/>
<path d="M59.1259 60.0566C59.4654 60.2868 59.8655 60.4112 60.2757 60.4139C60.6859 60.4166 61.0877 60.2977 61.4302 60.072C61.7727 59.8464 62.0406 59.5242 62.2 59.1463C62.3593 58.7684 62.403 58.3518 62.3254 57.9491C62.2478 57.5463 62.0525 57.1757 61.7641 56.884C61.4758 56.5923 61.1074 56.3927 60.7055 56.3104C60.3036 56.2281 59.8864 56.2669 59.5066 56.4218C59.1268 56.5767 58.8014 56.8407 58.5718 57.1805C58.4189 57.4056 58.3119 57.6587 58.257 57.9252C58.2021 58.1916 58.2004 58.4663 58.2519 58.7335C58.3033 59.0007 58.407 59.2551 58.557 59.4821C58.707 59.7092 58.9003 59.9044 59.1259 60.0566Z" fill="#EC8970"/>
<path d="M50.3921 50.1876C50.164 50.5268 50.0416 50.926 50.0403 51.3347C50.0389 51.7435 50.1588 52.1435 50.3847 52.4842C50.6106 52.8249 50.9324 53.091 51.3094 53.249C51.6865 53.4069 52.1019 53.4497 52.5033 53.3717C52.9046 53.2938 53.2738 53.0987 53.5644 52.8111C53.8549 52.5235 54.0536 52.1563 54.1355 51.7558C54.2175 51.3553 54.1788 50.9396 54.0246 50.561C53.8703 50.1825 53.6073 49.8582 53.2688 49.629C52.8131 49.3219 52.2542 49.2083 51.7148 49.3131C51.1754 49.4178 50.6997 49.7323 50.3921 50.1876Z" fill="#EC8970"/>
<path d="M62.4439 46.4768C62.104 46.2473 61.7037 46.1237 61.2936 46.1217C60.8834 46.1197 60.4819 46.2393 60.1398 46.4655C59.7977 46.6917 59.5304 47.0143 59.3717 47.3924C59.2129 47.7705 59.17 48.1872 59.2482 48.5897C59.3264 48.9922 59.5222 49.3625 59.811 49.6538C60.0997 49.945 60.4683 50.1441 60.8703 50.2258C61.2722 50.3075 61.6893 50.2682 62.0689 50.1128C62.4484 49.9574 62.7734 49.693 63.0026 49.353C63.1553 49.1276 63.2619 48.8743 63.3165 48.6076C63.371 48.3409 63.3724 48.0661 63.3205 47.7989C63.2685 47.5317 63.1644 47.2774 63.014 47.0505C62.8636 46.8237 62.6698 46.6287 62.4439 46.4768Z" fill="#EC8970"/>
<path d="M69.11 46.4607C69.4499 46.6903 69.8502 46.8139 70.2603 46.8159C70.6705 46.8179 71.072 46.6983 71.4141 46.4721C71.7562 46.2459 72.0235 45.9233 72.1822 45.5452C72.3409 45.1671 72.3839 44.7504 72.3057 44.3479C72.2275 43.9453 72.0317 43.575 71.7429 43.2838C71.4542 42.9926 71.0855 42.7935 70.6836 42.7118C70.2817 42.6301 69.8646 42.6694 69.485 42.8248C69.1054 42.9802 68.7805 43.2446 68.5513 43.5846C68.3986 43.81 68.292 44.0633 68.2374 44.33C68.1829 44.5966 68.1815 44.8715 68.2334 45.1387C68.2853 45.4059 68.3895 45.6602 68.5399 45.8871C68.6903 46.1139 68.8841 46.3089 69.11 46.4607Z" fill="#EC8970"/>
<path d="M78.2579 43.0193C78.5978 43.2489 78.9981 43.3725 79.4083 43.3745C79.8184 43.3765 80.2199 43.2568 80.562 43.0307C80.9041 42.8045 81.1715 42.4819 81.3302 42.1038C81.4889 41.7257 81.5319 41.309 81.4537 40.9065C81.3755 40.5039 81.1796 40.1336 80.8909 39.8424C80.6021 39.5512 80.2335 39.3521 79.8316 39.2704C79.4296 39.1887 79.0125 39.228 78.633 39.3834C78.2534 39.5387 77.9284 39.8032 77.6992 40.1432C77.3921 40.5988 77.2785 41.1576 77.3833 41.6969C77.488 42.2362 77.8026 42.7118 78.2579 43.0193Z" fill="#EC8970"/>
<path d="M69.3656 36.2143C69.7051 36.4445 70.1053 36.5689 70.5154 36.5716C70.9256 36.5744 71.3274 36.4554 71.6699 36.2297C72.0125 36.0041 72.2804 35.682 72.4397 35.3041C72.5991 34.9262 72.6427 34.5095 72.5651 34.1068C72.4875 33.7041 72.2922 33.3334 72.0039 33.0417C71.7155 32.75 71.3471 32.5504 70.9452 32.4681C70.5434 32.3859 70.1262 32.4246 69.7463 32.5795C69.3665 32.7344 69.0412 32.9984 68.8115 33.3382C68.6586 33.5633 68.5517 33.8164 68.4968 34.0829C68.4419 34.3494 68.4401 34.6241 68.4916 34.8912C68.5431 35.1584 68.6468 35.4128 68.7968 35.6399C68.9467 35.8669 69.14 36.0621 69.3656 36.2143Z" fill="#EC8970"/>
<path d="M60.1411 36.8181C59.9109 37.1576 59.7865 37.5576 59.7838 37.9677C59.781 38.3778 59.9 38.7796 60.1257 39.122C60.3514 39.4645 60.6736 39.7323 61.0516 39.8916C61.4295 40.051 61.8463 40.0946 62.2491 40.017C62.6519 39.9395 63.0226 39.7442 63.3143 39.4559C63.6061 39.1676 63.8057 38.7993 63.888 38.3975C63.9703 37.9957 63.9316 37.5785 63.7766 37.1988C63.6217 36.8191 63.3576 36.4938 63.0178 36.2642C62.5623 35.9579 62.0041 35.8443 61.4652 35.9481C60.9262 36.0519 60.4502 36.3646 60.1411 36.8181Z" fill="#EC8970"/>
<path d="M59.3783 29.5257C59.7182 29.7552 60.1185 29.8788 60.5286 29.8808C60.9388 29.8829 61.3403 29.7632 61.6824 29.537C62.0245 29.3108 62.2918 28.9883 62.4505 28.6102C62.6093 28.2321 62.6522 27.8154 62.574 27.4128C62.4958 27.0103 62.3 26.64 62.0112 26.3488C61.7225 26.0575 61.3538 25.8585 60.9519 25.7768C60.55 25.6951 60.1329 25.7344 59.7533 25.8897C59.3738 26.0451 59.0488 26.3095 58.8196 26.6496C58.5137 27.1055 58.4008 27.6639 58.5055 28.2029C58.6102 28.7418 58.924 29.2174 59.3783 29.5257Z" fill="#EC8970"/>
<path d="M51.4702 30.5142C51.24 30.8536 51.1156 31.2537 51.1129 31.6638C51.1101 32.0739 51.2291 32.4756 51.4548 32.8181C51.6805 33.1605 52.0027 33.4284 52.3806 33.5877C52.7586 33.747 53.1754 33.7906 53.5782 33.7131C53.981 33.6355 54.3517 33.4402 54.6434 33.1519C54.9352 32.8636 55.1348 32.4953 55.2171 32.0935C55.2994 31.6917 55.2607 31.2746 55.1057 30.8948C54.9508 30.5151 54.6867 30.1898 54.3469 29.9602C53.8918 29.6527 53.3332 29.5384 52.7939 29.6422C52.2546 29.7461 51.7785 30.0597 51.4702 30.5142Z" fill="#EC8970"/>
<path d="M28.8808 9.98509C29.2202 10.2153 29.6204 10.3396 30.0306 10.3424C30.4408 10.3451 30.8425 10.2261 31.1851 10.0005C31.5276 9.77487 31.7955 9.45271 31.9549 9.07481C32.1142 8.69691 32.1578 8.28023 32.0803 7.87752C32.0027 7.47481 31.8074 7.10415 31.519 6.81246C31.2307 6.52078 30.8622 6.32117 30.4604 6.23889C30.0585 6.15661 29.6413 6.19536 29.2615 6.35024C28.8817 6.50513 28.5563 6.76917 28.3267 7.10897C28.0191 7.56397 27.9047 8.1224 28.0086 8.66163C28.1125 9.20087 28.4262 9.67685 28.8808 9.98509Z" fill="#EC8970"/>
<path d="M19.3663 3.89122C19.7058 4.12141 20.106 4.24575 20.5162 4.24849C20.9264 4.25123 21.3281 4.13226 21.6707 3.90663C22.0132 3.681 22.2811 3.35884 22.4404 2.98094C22.5998 2.60303 22.6434 2.18636 22.5659 1.78365C22.4883 1.38093 22.2929 1.01029 22.0046 0.718605C21.7162 0.426917 21.3478 0.227296 20.946 0.145017C20.5441 0.0627373 20.1269 0.101491 19.7471 0.256373C19.3673 0.411254 19.0419 0.675312 18.8123 1.01511C18.6594 1.24021 18.5524 1.49326 18.4975 1.75975C18.4426 2.02625 18.4409 2.30095 18.4923 2.56813C18.5438 2.8353 18.6475 3.0897 18.7975 3.31674C18.9475 3.54378 19.1408 3.739 19.3663 3.89122Z" fill="#EC8970"/>
<path d="M10.903 10.0325C11.2378 10.2602 11.6326 10.3835 12.0375 10.3868C12.4424 10.39 12.8391 10.273 13.1775 10.0506C13.5158 9.82825 13.7806 9.51046 13.9381 9.13753C14.0957 8.76459 14.139 8.35331 14.0626 7.95575C13.9862 7.55818 13.7935 7.19223 13.5089 6.90426C13.2243 6.61629 12.8606 6.41925 12.4639 6.33809C12.0672 6.25694 11.6553 6.29533 11.2804 6.44839C10.9056 6.60146 10.5846 6.8623 10.3581 7.19791C10.0555 7.64636 9.94294 8.19643 10.0451 8.72769C10.1472 9.25894 10.4557 9.72811 10.903 10.0325Z" fill="#EC8970"/>
<path d="M18.1415 32.4505C18.481 32.6807 18.8811 32.8051 19.2913 32.8078C19.7015 32.8106 20.1033 32.6916 20.4458 32.466C20.7883 32.2403 21.0562 31.9182 21.2156 31.5403C21.3749 31.1624 21.4186 30.7457 21.341 30.343C21.2634 29.9403 21.0681 29.5696 20.7797 29.2779C20.4914 28.9862 20.123 28.7866 19.7211 28.7043C19.3193 28.6221 18.902 28.6608 18.5222 28.8157C18.1424 28.9706 17.8171 29.2346 17.5874 29.5744C17.2799 30.0294 17.1655 30.5878 17.2694 31.1271C17.3732 31.6663 17.6869 32.1423 18.1415 32.4505Z" fill="#EC8970"/>
<path d="M8.98964 33.8348C9.3278 34.0637 9.7263 34.1872 10.1347 34.1897C10.5431 34.1921 10.943 34.0733 11.2839 33.8484C11.6247 33.6235 11.8912 33.3025 12.0495 32.9261C12.2079 32.5498 12.2509 32.1349 12.1733 31.734C12.0957 31.3331 11.9009 30.9642 11.6135 30.6741C11.3262 30.384 10.9592 30.1856 10.559 30.1041C10.1588 30.0225 9.74347 30.0615 9.36547 30.2161C8.98748 30.3707 8.66384 30.634 8.43554 30.9725C8.12995 31.4257 8.01666 31.9816 8.12054 32.5182C8.22442 33.0548 8.53699 33.5283 8.98964 33.8348Z" fill="#EC8970"/>
<path d="M7.48167 45.6616C7.81283 45.886 8.20313 46.0072 8.6032 46.0098C9.00327 46.0125 9.39512 45.8964 9.7292 45.6763C10.0633 45.4562 10.3246 45.1421 10.48 44.7735C10.6355 44.4049 10.6781 43.9985 10.6025 43.6057C10.5269 43.2129 10.3365 42.8514 10.0553 42.5668C9.77414 42.2822 9.41488 42.0874 9.02297 42.007C8.63105 41.9267 8.2241 41.9643 7.85358 42.1152C7.48306 42.2661 7.16562 42.5234 6.94142 42.8547C6.64223 43.299 6.53111 43.8436 6.63234 44.3696C6.73357 44.8955 7.03892 45.36 7.48167 45.6616Z" fill="#EC8970"/>
<path d="M16.35 42.4283C16.6895 42.6585 17.0896 42.7829 17.4998 42.7856C17.91 42.7883 18.3118 42.6694 18.6543 42.4437C18.9968 42.2181 19.2647 41.896 19.4241 41.518C19.5834 41.1401 19.6271 40.7235 19.5495 40.3208C19.4719 39.918 19.2766 39.5474 18.9882 39.2557C18.6999 38.964 18.3315 38.7644 17.9296 38.6821C17.5278 38.5998 17.1105 38.6386 16.7307 38.7935C16.3509 38.9484 16.0256 39.2124 15.7959 39.5522C15.643 39.7773 15.5361 40.0304 15.4812 40.2969C15.4263 40.5634 15.4245 40.8381 15.476 41.1052C15.5275 41.3724 15.6312 41.6268 15.7811 41.8538C15.9311 42.0809 16.1244 42.2761 16.35 42.4283Z" fill="#EC8970"/>
<path d="M30.6365 26.6716C30.2232 26.4154 29.7319 26.3155 29.2513 26.39L29.0712 26.39C28.607 26.4905 28.1917 26.7483 27.8958 27.1198C27.5999 27.4913 27.4415 27.9536 27.4476 28.4285C27.4536 28.9033 27.6236 29.3615 27.9288 29.7254C28.234 30.0893 28.6556 30.3365 29.1223 30.4252C29.5889 30.5139 30.0718 30.4386 30.4893 30.212C30.9067 29.9854 31.233 29.6215 31.4129 29.182C31.5927 28.7424 31.615 28.2542 31.4761 27.8001C31.3371 27.346 31.0454 26.9538 30.6504 26.6901L30.6365 26.6716Z" fill="#EC8970"/>
<path d="M25.7614 40.063C26.1009 40.2932 26.501 40.4175 26.9112 40.4202C27.3214 40.423 27.7232 40.304 28.0657 40.0784C28.4082 39.8527 28.6761 39.5306 28.8355 39.1527C28.9948 38.7748 29.0385 38.3581 28.9609 37.9554C28.8833 37.5527 28.688 37.182 28.3996 36.8904C28.1113 36.5987 27.7429 36.399 27.341 36.3168C26.9391 36.2345 26.5219 36.2732 26.1421 36.4281C25.7623 36.583 25.4369 36.8471 25.2073 37.1869C24.8997 37.6419 24.7854 38.2003 24.8892 38.7395C24.9931 39.2788 25.3068 39.7547 25.7614 40.063Z" fill="#EC8970"/>
<path d="M33.7643 47.8225C34.1038 48.0527 34.5039 48.177 34.9141 48.1798C35.3243 48.1825 35.7261 48.0635 36.0686 47.8379C36.4111 47.6123 36.679 47.2901 36.8384 46.9122C36.9977 46.5343 37.0414 46.1176 36.9638 45.7149C36.8862 45.3122 36.6909 44.9416 36.4025 44.6499C36.1142 44.3582 35.7458 44.1586 35.3439 44.0763C34.9421 43.994 34.5248 44.0328 34.145 44.1876C33.7652 44.3425 33.4399 44.6066 33.2102 44.9464C33.0573 45.1715 32.9504 45.4245 32.8955 45.691C32.8406 45.9575 32.8388 46.2322 32.8903 46.4994C32.9418 46.7666 33.0455 47.021 33.1954 47.248C33.3454 47.4751 33.5387 47.6703 33.7643 47.8225Z" fill="#EC8970"/>
<path d="M35.071 37.6689C35.4104 37.8997 35.8107 38.0246 36.2212 38.0277C36.6316 38.0307 37.0338 37.912 37.3766 37.6863C37.7195 37.4607 37.9877 37.1384 38.1472 36.7603C38.3066 36.3821 38.3503 35.9652 38.2725 35.5622C38.1948 35.1593 37.9991 34.7885 37.7104 34.4968C37.4216 34.2051 37.0528 34.0057 36.6506 33.9238C36.2484 33.8419 35.8309 33.8812 35.4511 34.0367C35.0712 34.1922 34.7461 34.457 34.5169 34.7974C34.2108 35.2521 34.0973 35.8094 34.2011 36.3475C34.305 36.8857 34.6177 37.3608 35.071 37.6689Z" fill="#EC8970"/>
<path d="M43.7511 34.9416C44.0906 35.1718 44.4907 35.2962 44.9009 35.2989C45.3111 35.3016 45.7129 35.1827 46.0554 34.957C46.398 34.7314 46.6659 34.4093 46.8252 34.0314C46.9846 33.6534 47.0282 33.2368 46.9506 32.8341C46.873 32.4313 46.6777 32.0607 46.3894 31.769C46.101 31.4773 45.7326 31.2777 45.3307 31.1954C44.9289 31.1132 44.5116 31.1519 44.1318 31.3068C43.752 31.4617 43.4267 31.7257 43.197 32.0655C42.8907 32.5209 42.777 33.079 42.8809 33.6178C42.9847 34.1567 43.2975 34.6326 43.7511 34.9416Z" fill="#EC8970"/>
<path d="M54.7077 42.6055C54.9358 42.2663 55.0582 41.8671 55.0596 41.4583C55.0609 41.0496 54.941 40.6496 54.7152 40.3089C54.4893 39.9682 54.1675 39.7021 53.7904 39.5441C53.4133 39.3861 52.9979 39.3434 52.5966 39.4214C52.1952 39.4993 51.826 39.6944 51.5355 39.982C51.245 40.2696 51.0462 40.6368 50.9643 41.0373C50.8824 41.4378 50.921 41.8535 51.0752 42.232C51.2295 42.6106 51.4925 42.9349 51.831 43.1641C52.2867 43.4712 52.8456 43.5848 53.385 43.48C53.9244 43.3753 54.4001 43.0608 54.7077 42.6055Z" fill="#EC8970"/>
<path d="M42.8392 45.2825C43.1787 45.5126 43.5789 45.637 43.9891 45.6397C44.3993 45.6425 44.801 45.5235 45.1436 45.2979C45.4861 45.0722 45.754 44.7501 45.9133 44.3722C46.0727 43.9943 46.1163 43.5776 46.0388 43.1749C45.9612 42.7722 45.7658 42.4015 45.4775 42.1098C45.1891 41.8182 44.8207 41.6185 44.4189 41.5363C44.017 41.454 43.5998 41.4927 43.22 41.6476C42.8402 41.8025 42.5148 42.0665 42.2852 42.4063C41.9776 42.8613 41.8632 43.4198 41.9671 43.959C42.071 44.4982 42.3847 44.9742 42.8392 45.2825Z" fill="#EC8970"/>
<path d="M44.1717 52.0042C43.8324 51.7761 43.4332 51.6537 43.0244 51.6524C42.6155 51.6511 42.2155 51.7709 41.8747 51.9967C41.5339 52.2226 41.2677 52.5443 41.1097 52.9213C40.9517 53.2983 40.909 53.7137 40.987 54.1149C41.0649 54.5162 41.26 54.8854 41.5477 55.1758C41.8354 55.4663 42.2026 55.665 42.6032 55.7469C43.0037 55.8288 43.4196 55.7902 43.7982 55.6359C44.1768 55.4817 44.5012 55.2188 44.7305 54.8803C45.0375 54.4247 45.1512 53.8659 45.0464 53.3266C44.9417 52.7874 44.6271 52.3117 44.1717 52.0042Z" fill="#EC8970"/>
<path d="M32.818 57.9021C33.1573 58.1302 33.5566 58.2526 33.9654 58.2539C34.3743 58.2552 34.7743 58.1354 35.1151 57.9095C35.4559 57.6837 35.722 57.362 35.88 56.985C36.038 56.608 36.0808 56.1926 36.0028 55.7914C35.9249 55.3901 35.7297 55.0209 35.4421 54.7305C35.1544 54.44 34.7871 54.2413 34.3866 54.1594C33.986 54.0775 33.5702 54.1161 33.1916 54.2704C32.813 54.4246 32.4886 54.6875 32.2593 55.026C31.9522 55.4815 31.8386 56.0404 31.9433 56.5796C32.0481 57.1189 32.3627 57.5946 32.818 57.9021Z" fill="#EC8970"/>
<path d="M23.8764 60.3252C24.2162 60.5548 24.6165 60.6784 25.0267 60.6804C25.4368 60.6824 25.8383 60.5628 26.1804 60.3366C26.5226 60.1104 26.7899 59.7878 26.9486 59.4097C27.1073 59.0316 27.1503 58.6149 27.0721 58.2124C26.9939 57.8099 26.798 57.4395 26.5093 57.1483C26.2205 56.8571 25.8519 56.658 25.45 56.5763C25.0481 56.4946 24.6309 56.5339 24.2514 56.6893C23.8718 56.8447 23.5469 57.1091 23.3176 57.4491C23.165 57.6745 23.0583 57.9278 23.0038 58.1945C22.9492 58.4611 22.9479 58.736 22.9998 59.0032C23.0517 59.2704 23.1558 59.5247 23.3063 59.7516C23.4567 59.9784 23.6504 60.1734 23.8764 60.3252Z" fill="#EC8970"/>
<path d="M24.661 50.0831C25.0005 50.3133 25.4007 50.4376 25.8108 50.4404C26.221 50.4431 26.6228 50.3242 26.9653 50.0985C27.3079 49.8729 27.5758 49.5507 27.7351 49.1728C27.8945 48.7949 27.9381 48.3783 27.8605 47.9755C27.7829 47.5728 27.5876 47.2022 27.2993 46.9105C27.0109 46.6188 26.6425 46.4192 26.2407 46.3369C25.8388 46.2546 25.4216 46.2934 25.0418 46.4483C24.6619 46.6031 24.3366 46.8672 24.1069 47.207C23.7994 47.662 23.685 48.2204 23.7889 48.7596C23.8928 49.2989 24.2064 49.7749 24.661 50.0831Z" fill="#EC8970"/>
<path d="M15.7633 52.8762C16.1028 53.1058 16.5028 53.2296 16.9127 53.232C17.3226 53.2344 17.7241 53.1152 18.0663 52.8896C18.4085 52.664 18.6761 52.342 18.8353 51.9643C18.9945 51.5866 19.0382 51.1702 18.9607 50.7678C18.8833 50.3653 18.6883 49.9948 18.4004 49.7031C18.1124 49.4114 17.7444 49.2116 17.3429 49.129C16.9414 49.0463 16.5244 49.0845 16.1446 49.2387C15.7649 49.393 15.4393 49.6563 15.2092 49.9955C14.9014 50.4512 14.7869 51.0103 14.8908 51.5503C14.9946 52.0903 15.3084 52.5671 15.7633 52.8762Z" fill="#EC8970"/>
<path d="M7.38786 57.0549C7.72716 57.283 8.12643 57.4054 8.53527 57.4067C8.9441 57.4081 9.34416 57.2882 9.68492 57.0624C10.0257 56.8365 10.2919 56.5148 10.4499 56.1378C10.6079 55.7608 10.6506 55.3455 10.5726 54.9442C10.4947 54.5429 10.2996 54.1738 10.0119 53.8833C9.72427 53.5929 9.35698 53.3941 8.95643 53.3122C8.55588 53.2303 8.14004 53.269 7.76143 53.4232C7.38281 53.5774 7.0584 53.8404 6.82916 54.1788C6.52207 54.6344 6.40843 55.1932 6.51319 55.7325C6.61795 56.2718 6.93254 56.7474 7.38786 57.0549Z" fill="#EC8970"/>
<path d="M15.2992 63.6637C15.6385 63.8917 16.0378 64.0142 16.4466 64.0155C16.8555 64.0168 17.2555 63.897 17.5963 63.6712C17.9371 63.4453 18.2033 63.1236 18.3612 62.7466C18.5192 62.3696 18.562 61.9542 18.484 61.553C18.4061 61.1517 18.2109 60.7825 17.9233 60.4921C17.6356 60.2016 17.2683 60.0029 16.8678 59.921C16.4672 59.8391 16.0514 59.8777 15.6728 60.032C15.2942 60.1862 14.9698 60.4491 14.7405 60.7876C14.4334 61.2432 14.3198 61.802 14.4246 62.3413C14.5293 62.8805 14.8439 63.3562 15.2992 63.6637Z" fill="#EC8970"/>
<path d="M6.87939 67.8497C7.21824 68.079 7.61748 68.2026 8.02663 68.205C8.43579 68.2074 8.83647 68.0885 9.17799 67.8632C9.51952 67.6379 9.78657 67.3164 9.94534 66.9394C10.1041 66.5624 10.1475 66.1467 10.07 65.7451C9.99245 65.3434 9.79755 64.9737 9.50989 64.6828C9.22223 64.3919 8.85475 64.1928 8.45391 64.1107C8.05307 64.0286 7.63689 64.0672 7.25799 64.2216C6.8791 64.3761 6.55451 64.6393 6.32529 64.9782C6.01799 65.4325 5.90373 65.9902 6.00764 66.5287C6.11155 67.0671 6.42512 67.5423 6.87939 67.8497Z" fill="#EC8970"/>
<path d="M5.48802 78.5588C5.82687 78.7881 6.22613 78.9117 6.63528 78.9141C7.04443 78.9166 7.44511 78.7976 7.78664 78.5723C8.12817 78.347 8.3952 78.0255 8.55397 77.6485C8.71274 77.2715 8.75612 76.8559 8.67861 76.4542C8.6011 76.0525 8.40618 75.6828 8.11852 75.3919C7.83086 75.101 7.46338 74.9019 7.06254 74.8198C6.6617 74.7377 6.24552 74.7763 5.86662 74.9307C5.48773 75.0852 5.16314 75.3484 4.93392 75.6873C4.62784 76.1419 4.51431 76.6993 4.61815 77.2374C4.72198 77.7755 5.03475 78.2506 5.48802 78.5588Z" fill="#EC8970"/>
<path d="M16.4512 70.9386C16.1117 70.7084 15.7116 70.5841 15.3014 70.5813C14.8912 70.5786 14.4894 70.6975 14.1469 70.9232C13.8044 71.1488 13.5365 71.471 13.3771 71.8489C13.2178 72.2268 13.1741 72.6434 13.2517 73.0462C13.3293 73.4489 13.5246 73.8195 13.813 74.1112C14.1013 74.4029 14.4697 74.6025 14.8716 74.6848C15.2734 74.7671 15.6907 74.7283 16.0705 74.5734C16.4503 74.4186 16.7756 74.1545 17.0053 73.8147C17.1582 73.5896 17.2651 73.3366 17.32 73.0701C17.3749 72.8036 17.3767 72.5289 17.3252 72.2617C17.2737 71.9945 17.17 71.7401 17.0201 71.5131C16.8701 71.286 16.6768 71.0908 16.4512 70.9386Z" fill="#EC8970"/>
<path d="M15.1818 81.4903C14.8423 81.2601 14.4421 81.1358 14.0319 81.1331C13.6217 81.1303 13.22 81.2493 12.8774 81.4749C12.5349 81.7006 12.267 82.0227 12.1077 82.4006C11.9483 82.7785 11.9047 83.1952 11.9822 83.5979C12.0598 84.0006 12.2551 84.3713 12.5435 84.663C12.8318 84.9546 13.2003 85.1543 13.6021 85.2365C14.004 85.3188 14.4212 85.2801 14.801 85.1252C15.1808 84.9703 15.5062 84.7063 15.7359 84.3665C16.0434 83.9115 16.1578 83.353 16.0539 82.8138C15.95 82.2746 15.6363 81.7986 15.1818 81.4903Z" fill="#EC8970"/>
<path d="M4.63628 89.5935C4.97469 89.824 5.37392 89.949 5.78339 89.9524C6.19286 89.9559 6.59415 89.8378 6.93644 89.6131C7.27873 89.3884 7.54661 89.0672 7.70615 88.6901C7.8657 88.3131 7.90973 87.8971 7.83266 87.4951C7.7556 87.093 7.5609 86.7228 7.27324 86.4314C6.98558 86.14 6.61791 85.9406 6.21678 85.8583C5.81565 85.776 5.39911 85.8146 5.01993 85.9692C4.64076 86.1238 4.31601 86.3874 4.0868 86.7267C3.78052 87.18 3.66637 87.7362 3.76935 88.2735C3.87234 88.8109 4.18406 89.2855 4.63628 89.5935Z" fill="#EC8970"/>
<path d="M19.9158 88.2738C19.6868 88.6136 19.5637 89.0137 19.562 89.4235C19.5604 89.8333 19.6802 90.2344 19.9065 90.5761C20.1327 90.9178 20.4552 91.1848 20.8331 91.3433C21.2111 91.5019 21.6276 91.5449 22.0299 91.4669C22.4323 91.3888 22.8025 91.1933 23.0938 90.9051C23.3851 90.6168 23.5844 90.2486 23.6665 89.8471C23.7486 89.4456 23.7098 89.0288 23.5551 88.6494C23.4003 88.2699 23.1366 87.9448 22.7971 87.7152C22.3407 87.4079 21.7811 87.2942 21.241 87.3989C20.7008 87.5036 20.2243 87.8182 19.9158 88.2738Z" fill="#EC8970"/>
<path d="M28.2507 86.2423C28.0211 86.5818 27.8972 86.9817 27.8948 87.3915C27.8924 87.8014 28.0116 88.2027 28.2373 88.5448C28.463 88.887 28.7851 89.1545 29.1628 89.3137C29.5405 89.4729 29.957 89.5165 30.3595 89.4391C30.7621 89.3617 31.1326 89.1668 31.4244 88.8789C31.7161 88.591 31.916 88.2231 31.9987 87.8216C32.0813 87.4202 32.0431 87.0033 31.8889 86.6236C31.7346 86.2439 31.4712 85.9184 31.132 85.6883C30.9065 85.5353 30.653 85.4283 30.3861 85.3734C30.1192 85.3184 29.8441 85.3166 29.5765 85.3681C29.3089 85.4195 29.054 85.5232 28.8266 85.6732C28.5991 85.8232 28.4034 86.0166 28.2507 86.2423Z" fill="#EC8970"/>
<path d="M37.0967 83.6316C36.8671 83.9714 36.7435 84.3717 36.7415 84.7817C36.7395 85.1918 36.8592 85.5932 37.0854 85.9353C37.3116 86.2773 37.6342 86.5446 38.0124 86.7033C38.3906 86.8619 38.8074 86.9049 39.21 86.8267C39.6126 86.7485 39.983 86.5527 40.2743 86.264C40.5656 85.9754 40.7646 85.6068 40.8464 85.2049C40.9281 84.8031 40.8888 84.3861 40.7334 84.0066C40.578 83.6271 40.3135 83.3022 39.9734 83.073C39.748 82.9204 39.4946 82.8138 39.2279 82.7592C38.9612 82.7047 38.6863 82.7033 38.4191 82.7552C38.1518 82.8071 37.8974 82.9113 37.6705 83.0616C37.4436 83.212 37.2486 83.4057 37.0967 83.6316Z" fill="#EC8970"/>
<path d="M38.9233 73.071C38.6931 73.4104 38.5687 73.8105 38.566 74.2206C38.5632 74.6307 38.6822 75.0324 38.9079 75.3748C39.1336 75.7173 39.4558 75.9851 39.8338 76.1445C40.2118 76.3038 40.6285 76.3474 41.0313 76.2698C41.4341 76.1923 41.8048 75.997 42.0965 75.7087C42.3883 75.4204 42.588 75.0521 42.6702 74.6503C42.7525 74.2485 42.7138 73.8314 42.5589 73.4516C42.404 73.0719 42.1398 72.7466 41.8 72.517C41.3449 72.2095 40.7864 72.0951 40.247 72.199C39.7077 72.3029 39.2316 72.6165 38.9233 73.071Z" fill="#EC8970"/>
<path d="M33.3798 77.9517C33.6079 77.6125 33.7304 77.2133 33.7317 76.8045C33.733 76.3958 33.6132 75.9958 33.3873 75.6551C33.1614 75.3144 32.8396 75.0483 32.4625 74.8903C32.0854 74.7323 31.67 74.6896 31.2687 74.7676C30.8673 74.8455 30.4981 75.0406 30.2076 75.3282C29.9171 75.6158 29.7183 75.983 29.6364 76.3835C29.5545 76.7839 29.5931 77.1997 29.7474 77.5782C29.9016 77.9568 30.1646 78.2811 30.5031 78.5103C30.9588 78.8173 31.5177 78.931 32.0571 78.8262C32.5965 78.7215 33.0722 78.407 33.3798 77.9517Z" fill="#EC8970"/>
<path d="M23.969 77.6941C23.6295 77.4639 23.2294 77.3395 22.8192 77.3368C22.409 77.3341 22.0072 77.453 21.6647 77.6787C21.3222 77.9043 21.0543 78.2265 20.8949 78.6044C20.7356 78.9823 20.692 79.3989 20.7695 79.8016C20.8471 80.2044 21.0424 80.575 21.3308 80.8667C21.6191 81.1584 21.9876 81.358 22.3894 81.4403C22.7913 81.5226 23.2085 81.4838 23.5883 81.3289C23.9681 81.174 24.2935 80.91 24.5231 80.5702C24.676 80.3451 24.783 80.092 24.8378 79.8255C24.8927 79.5591 24.8945 79.2843 24.843 79.0172C24.7916 78.75 24.6879 78.4956 24.5379 78.2686C24.3879 78.0415 24.1946 77.8463 23.969 77.6941Z" fill="#EC8970"/>
<path d="M22.9169 70.7657C23.2567 70.9952 23.6571 71.1188 24.0672 71.1208C24.4773 71.1228 24.8789 71.0032 25.221 70.777C25.5631 70.5508 25.8304 70.2283 25.9891 69.8502C26.1478 69.472 26.1908 69.0554 26.1126 68.6528C26.0344 68.2503 25.8385 67.88 25.5498 67.5887C25.2611 67.2975 24.8924 67.0985 24.4905 67.0167C24.0886 66.935 23.6714 66.9744 23.2919 67.1297C22.9123 67.2851 22.5874 67.5495 22.3582 67.8896C22.0511 68.3451 21.9374 68.9039 22.0422 69.4432C22.147 69.9825 22.4615 70.4582 22.9169 70.7657Z" fill="#EC8970"/>
<path d="M34.0956 64.7092C33.7561 64.479 33.3559 64.3547 32.9458 64.3519C32.5356 64.3492 32.1338 64.4682 31.7913 64.6938C31.4487 64.9194 31.1808 65.2416 31.0215 65.6195C30.8621 65.9974 30.8185 66.4141 30.8961 66.8168C30.9737 67.2195 31.169 67.5901 31.4573 67.8818C31.7457 68.1735 32.1141 68.3731 32.5159 68.4554C32.9178 68.5377 33.335 68.4989 33.7148 68.3441C34.0947 68.1892 34.42 67.9251 34.6497 67.5853C34.9572 67.1303 35.0716 66.5719 34.9677 66.0327C34.8638 65.4934 34.5501 65.0174 34.0956 64.7092Z" fill="#EC8970"/>
<path d="M40.2392 62.774C40.009 63.1134 39.8846 63.5134 39.8819 63.9236C39.8791 64.3337 39.9982 64.7354 40.2238 65.0778C40.4495 65.4203 40.7717 65.6881 41.1497 65.8475C41.5277 66.0068 41.9444 66.0504 42.3472 65.9728C42.75 65.8953 43.1207 65.7 43.4125 65.4117C43.7042 65.1234 43.9039 64.7551 43.9862 64.3533C44.0685 63.9515 44.0297 63.5344 43.8748 63.1546C43.7199 62.7749 43.4558 62.4496 43.1159 62.22C42.6608 61.9125 42.1023 61.7981 41.563 61.902C41.0236 62.0059 40.5475 62.3195 40.2392 62.774Z" fill="#EC8970"/>
<path d="M49.3467 60.2575C49.1186 60.5967 48.9962 60.9959 48.9948 61.4047C48.9935 61.8134 49.1134 62.2134 49.3393 62.5541C49.5652 62.8948 49.887 63.161 50.264 63.3189C50.6411 63.4769 51.0565 63.5196 51.4579 63.4417C51.8592 63.3637 52.2284 63.1687 52.519 62.8811C52.8095 62.5935 53.0082 62.2262 53.0901 61.8258C53.172 61.4253 53.1334 61.0095 52.9792 60.631C52.8249 60.2525 52.5619 59.9281 52.2234 59.6989C51.7677 59.3919 51.2088 59.2783 50.6694 59.383C50.13 59.4877 49.6543 59.8023 49.3467 60.2575Z" fill="#EC8970"/>
<path d="M48.6188 73.3144C48.9583 73.5446 49.3584 73.669 49.7686 73.6717C50.1788 73.6744 50.5806 73.5555 50.9231 73.3298C51.2656 73.1042 51.5335 72.7821 51.6929 72.4042C51.8522 72.0263 51.8959 71.6096 51.8183 71.2069C51.7407 70.8042 51.5454 70.4335 51.257 70.1418C50.9687 69.8501 50.6003 69.6505 50.1984 69.5682C49.7966 69.486 49.3793 69.5247 48.9995 69.6796C48.6197 69.8345 48.2944 70.0985 48.0647 70.4383C47.7584 70.8937 47.6447 71.4517 47.7485 71.9906C47.8523 72.5295 48.1652 73.0054 48.6188 73.3144Z" fill="#EC8970"/>
<path d="M57.8837 70.2766C58.223 70.5047 58.6223 70.6271 59.0311 70.6284C59.4399 70.6297 59.84 70.5099 60.1808 70.2841C60.5215 70.0582 60.7877 69.7365 60.9457 69.3595C61.1037 68.9825 61.1464 68.5671 61.0685 68.1659C60.9905 67.7646 60.7954 67.3955 60.5078 67.105C60.2201 66.8145 59.8528 66.6158 59.4523 66.5339C59.0517 66.452 58.6359 66.4906 58.2573 66.6449C57.8787 66.7991 57.5542 67.0621 57.325 67.4005C57.0179 67.8561 56.9043 68.4149 57.009 68.9542C57.1138 69.4934 57.4284 69.9691 57.8837 70.2766Z" fill="#EC8970"/>
<path d="M67.1356 66.9068C67.4755 67.1363 67.8758 67.2599 68.286 67.2619C68.6961 67.264 69.0976 67.1443 69.4397 66.9181C69.7818 66.6919 70.0491 66.3694 70.2079 65.9913C70.3666 65.6132 70.4096 65.1965 70.3314 64.7939C70.2532 64.3914 70.0573 64.0211 69.7686 63.7299C69.4798 63.4386 69.1112 63.2396 68.7093 63.1579C68.3073 63.0762 67.8902 63.1155 67.5106 63.2708C67.1311 63.4262 66.8061 63.6906 66.5769 64.0307C66.2698 64.4862 66.1562 65.045 66.2609 65.5843C66.3657 66.1236 66.6803 66.5993 67.1356 66.9068Z" fill="#EC8970"/>
<path d="M76.456 63.3109C76.7953 63.539 77.1945 63.6614 77.6034 63.6627C78.0122 63.664 78.4123 63.5442 78.753 63.3184C79.0938 63.0925 79.36 62.7708 79.518 62.3938C79.676 62.0168 79.7187 61.6014 79.6408 61.2002C79.5628 60.7989 79.3677 60.4298 79.08 60.1393C78.7924 59.8488 78.4251 59.6501 78.0245 59.5682C77.624 59.4863 77.2082 59.5249 76.8295 59.6792C76.4509 59.8334 76.1265 60.0964 75.8973 60.4348C75.744 60.66 75.6369 60.9133 75.582 61.18C75.5271 61.4468 75.5256 61.7218 75.5775 61.9892C75.6295 62.2566 75.7338 62.511 75.8846 62.7379C76.0354 62.9647 76.2296 63.1595 76.456 63.3109Z" fill="#EC8970"/>
<path d="M65.7336 77.1951C66.0729 77.4231 66.4721 77.5455 66.881 77.5469C67.2898 77.5482 67.6899 77.4284 68.0306 77.2025C68.3714 76.9767 68.6376 76.6549 68.7956 76.2779C68.9536 75.9009 68.9963 75.4856 68.9184 75.0843C68.8404 74.6831 68.6453 74.3139 68.3576 74.0235C68.07 73.733 67.7027 73.5343 67.3021 73.4524C66.9016 73.3705 66.4857 73.4091 66.1071 73.5633C65.7285 73.7176 65.4041 73.9805 65.1749 74.319C64.8678 74.7745 64.7541 75.3333 64.8589 75.8726C64.9636 76.4119 65.2783 76.8876 65.7336 77.1951Z" fill="#EC8970"/>
<path d="M56.2677 80.5123C56.6076 80.7418 57.0079 80.8654 57.418 80.8674C57.8282 80.8694 58.2297 80.7498 58.5718 80.5236C58.9139 80.2974 59.1812 79.9748 59.3399 79.5967C59.4987 79.2186 59.5416 78.8019 59.4634 78.3994C59.3852 77.9969 59.1894 77.6266 58.9006 77.3353C58.6119 77.0441 58.2432 76.845 57.8413 76.7633C57.4394 76.6816 57.0223 76.7209 56.6427 76.8763C56.2632 77.0317 55.9382 77.2961 55.709 77.6361C55.5563 77.8615 55.4497 78.1148 55.3951 78.3815C55.3406 78.6482 55.3392 78.923 55.3911 79.1902C55.443 79.4574 55.5472 79.7117 55.6976 79.9386C55.848 80.1654 56.0418 80.3604 56.2677 80.5123Z" fill="#EC8970"/>
<path d="M49.1643 80.2253C48.825 79.9972 48.4257 79.8748 48.0168 79.8735C47.608 79.8721 47.208 79.992 46.8672 80.2178C46.5264 80.4437 46.2602 80.7654 46.1022 81.1424C45.9442 81.5194 45.9015 81.9347 45.9795 82.336C46.0574 82.7372 46.2525 83.1064 46.5402 83.3969C46.8279 83.6873 47.1952 83.8861 47.5957 83.968C47.9962 84.0498 48.4121 84.0112 48.7907 83.857C49.1693 83.7028 49.4937 83.4398 49.723 83.1014C49.8762 82.8762 49.9834 82.6229 50.0383 82.3561C50.0931 82.0894 50.0946 81.8144 50.0427 81.547C49.9908 81.2796 49.8864 81.0252 49.7356 80.7983C49.5849 80.5715 49.3907 80.3767 49.1643 80.2253Z" fill="#EC8970"/>
<path d="M43.6231 91.2542C43.3935 91.594 43.2699 91.9942 43.2679 92.4043C43.2658 92.8143 43.3855 93.2158 43.6117 93.5578C43.838 93.8999 44.1606 94.1671 44.5388 94.3258C44.917 94.4845 45.3337 94.5275 45.7364 94.4493C46.139 94.3711 46.5094 94.1753 46.8006 93.8866C47.0919 93.5979 47.291 93.2293 47.3727 92.8275C47.4545 92.4257 47.4151 92.0086 47.2597 91.6291C47.1044 91.2496 46.8399 90.9247 46.4998 90.6956C46.0441 90.3885 45.4852 90.2749 44.9458 90.3797C44.4064 90.4844 43.9307 90.7989 43.6231 91.2542Z" fill="#EC8970"/>
<path d="M41.2702 101.377C41.04 101.716 40.9156 102.116 40.9129 102.526C40.9102 102.936 41.0291 103.338 41.2548 103.681C41.4805 104.023 41.8027 104.291 42.1807 104.45C42.5587 104.61 42.9754 104.653 43.3782 104.576C43.781 104.498 44.1517 104.303 44.4435 104.014C44.7352 103.726 44.9349 103.358 45.0172 102.956C45.0995 102.554 45.0607 102.137 44.9058 101.757C44.7509 101.378 44.4868 101.052 44.1469 100.823C43.9218 100.67 43.6687 100.563 43.4021 100.508C43.1356 100.453 42.8608 100.451 42.5936 100.503C42.3264 100.554 42.0719 100.658 41.8448 100.808C41.6178 100.958 41.4225 101.151 41.2702 101.377Z" fill="#EC8970"/>
<path d="M42.5537 113.799C42.784 113.459 42.9083 113.059 42.9111 112.649C42.9138 112.239 42.7948 111.837 42.5692 111.495C42.3435 111.152 42.0213 110.884 41.6433 110.725C41.2653 110.566 40.8486 110.522 40.4458 110.6C40.043 110.677 39.6723 110.873 39.3805 111.161C39.0888 111.449 38.8891 111.818 38.8068 112.219C38.7245 112.621 38.7633 113.038 38.9182 113.418C39.0731 113.798 39.3372 114.123 39.6771 114.353C40.1322 114.66 40.6907 114.774 41.23 114.671C41.7694 114.567 42.2455 114.253 42.5537 113.799Z" fill="#EC8970"/>
<path d="M34.387 106.856C34.6172 106.516 34.7416 106.116 34.7443 105.706C34.7471 105.296 34.6281 104.894 34.4024 104.552C34.1767 104.209 33.8545 103.941 33.4765 103.782C33.0986 103.623 32.6818 103.579 32.279 103.657C31.8762 103.734 31.5055 103.929 31.2138 104.218C30.922 104.506 30.7224 104.874 30.6401 105.276C30.5578 105.678 30.5965 106.095 30.7514 106.475C30.9064 106.855 31.1705 107.18 31.5103 107.41C31.9654 107.717 32.5239 107.831 33.0633 107.727C33.6026 107.624 34.0787 107.31 34.387 106.856Z" fill="#EC8970"/>
<path d="M36.2675 93.8746C35.9282 93.6465 35.5289 93.5241 35.1201 93.5228C34.7112 93.5214 34.3112 93.6413 33.9704 93.8671C33.6296 94.093 33.3635 94.4147 33.2055 94.7917C33.0475 95.1687 33.0047 95.584 33.0827 95.9853C33.1606 96.3865 33.3558 96.7557 33.6434 97.0462C33.9311 97.3366 34.2983 97.5354 34.6989 97.6172C35.0994 97.6991 35.5153 97.6605 35.8939 97.5063C36.2725 97.3521 36.5969 97.0891 36.8262 96.7507C37.1333 96.2951 37.2469 95.7363 37.1421 95.197C37.0374 94.6577 36.7228 94.1821 36.2675 93.8746Z" fill="#EC8970"/>
<path d="M26.2749 100.001C26.5045 99.6613 26.6281 99.2611 26.6301 98.851C26.6321 98.4409 26.5124 98.0395 26.2862 97.6975C26.06 97.3554 25.7374 97.0882 25.3592 96.9295C24.981 96.7708 24.5642 96.7278 24.1616 96.806C23.759 96.8842 23.3886 97.08 23.0973 97.3687C22.806 97.6574 22.6069 98.0259 22.5252 98.4278C22.4435 98.8296 22.4828 99.2467 22.6382 99.6262C22.7936 100.006 23.0581 100.331 23.3982 100.56C23.8542 100.866 24.4128 100.978 24.9518 100.874C25.4908 100.769 25.9665 100.455 26.2749 100.001Z" fill="#EC8970"/>
<path d="M15.5853 102.375C15.246 102.147 14.8468 102.025 14.4379 102.023C14.0291 102.022 13.629 102.142 13.2883 102.368C12.9475 102.593 12.6813 102.915 12.5233 103.292C12.3653 103.669 12.3226 104.085 12.4005 104.486C12.4785 104.887 12.6736 105.256 12.9613 105.547C13.2489 105.837 13.6162 106.036 14.0168 106.118C14.4173 106.2 14.8332 106.161 15.2118 106.007C15.5904 105.853 15.9148 105.59 16.144 105.251C16.4511 104.796 16.5648 104.237 16.46 103.697C16.3552 103.158 16.0407 102.683 15.5853 102.375Z" fill="#EC8970"/>
<path d="M15.3426 92.4615C15.0027 92.2319 14.6024 92.1083 14.1922 92.1063C13.7821 92.1043 13.3806 92.224 13.0385 92.4501C12.6964 92.6763 12.429 92.9989 12.2703 93.377C12.1116 93.7551 12.0686 94.1718 12.1468 94.5743C12.225 94.9769 12.4209 95.3472 12.7096 95.6384C12.9984 95.9296 13.367 96.1287 13.7689 96.2104C14.1709 96.2921 14.588 96.2528 14.9676 96.0974C15.3471 95.942 15.6721 95.6776 15.9013 95.3376C16.0539 95.1122 16.1606 94.8589 16.2151 94.5922C16.2697 94.3256 16.271 94.0507 16.2191 93.7836C16.1672 93.5164 16.0631 93.262 15.9127 93.0351C15.7622 92.8083 15.5685 92.6133 15.3426 92.4615Z" fill="#EC8970"/>
<path d="M4.46899 100.229C4.80784 100.458 5.20708 100.582 5.61623 100.584C6.02539 100.587 6.42607 100.468 6.76759 100.242C7.10912 100.017 7.37617 99.6956 7.53494 99.3186C7.69371 98.9415 7.73707 98.5259 7.65956 98.1242C7.58205 97.7226 7.38715 97.3529 7.09949 97.062C6.81183 96.7711 6.44435 96.572 6.04351 96.4899C5.64267 96.4078 5.22649 96.4464 4.84759 96.6008C4.4687 96.7552 4.14411 97.0185 3.91489 97.3573C3.60881 97.812 3.49528 98.3693 3.59911 98.9074C3.70295 99.4456 4.01571 99.9207 4.46899 100.229Z" fill="#EC8970"/>
<path d="M3.62776 110.593C3.96599 110.822 4.36434 110.945 4.77246 110.947C5.18058 110.949 5.58016 110.83 5.92068 110.605C6.2612 110.38 6.52738 110.059 6.68557 109.683C6.84376 109.307 6.88687 108.892 6.80943 108.492C6.732 108.091 6.5375 107.722 6.25053 107.432C5.96356 107.142 5.597 106.943 5.19717 106.862C4.79735 106.78 4.38223 106.818 4.00426 106.972C3.62629 107.126 3.30244 107.389 3.07366 107.726C2.92102 107.951 2.81425 108.203 2.75948 108.469C2.70471 108.735 2.70302 109.009 2.75451 109.275C2.806 109.541 2.90967 109.795 3.05953 110.021C3.20939 110.248 3.4025 110.442 3.62776 110.593Z" fill="#EC8970"/>
<path d="M10.9338 113.504C10.7036 113.843 10.5792 114.243 10.5765 114.653C10.5737 115.064 10.6927 115.465 10.9184 115.808C11.1441 116.15 11.4663 116.418 11.8443 116.577C12.2223 116.737 12.639 116.78 13.0418 116.703C13.4446 116.625 13.8153 116.43 14.1071 116.142C14.3988 115.853 14.5984 115.485 14.6807 115.083C14.763 114.681 14.7243 114.264 14.5694 113.884C14.4145 113.505 14.1504 113.179 13.8105 112.95C13.355 112.644 12.7969 112.53 12.2579 112.634C11.7189 112.738 11.2429 113.05 10.9338 113.504Z" fill="#EC8970"/>
<path d="M19.0923 118.854C18.862 119.193 18.7377 119.594 18.7349 120.004C18.7322 120.414 18.8512 120.815 19.0768 121.158C19.3025 121.5 19.6247 121.768 20.0027 121.928C20.3807 122.087 20.7975 122.13 21.2002 122.053C21.603 121.975 21.9738 121.78 22.2655 121.492C22.5573 121.203 22.7569 120.835 22.8392 120.433C22.9215 120.032 22.8827 119.614 22.7278 119.235C22.5729 118.855 22.3088 118.53 21.9689 118.3C21.5135 117.994 20.9553 117.88 20.4163 117.984C19.8774 118.088 19.4014 118.401 19.0923 118.854Z" fill="#EC8970"/>
<path d="M12.8633 127.156C13.0936 126.817 13.2179 126.416 13.2207 126.006C13.2234 125.596 13.1044 125.195 12.8787 124.852C12.6531 124.51 12.3308 124.242 11.9529 124.082C11.5749 123.923 11.1581 123.88 10.7553 123.957C10.3525 124.035 9.98181 124.23 9.69007 124.518C9.39833 124.807 9.19868 125.175 9.11638 125.577C9.03409 125.978 9.07285 126.396 9.22776 126.775C9.38267 127.155 9.64677 127.48 9.98664 127.71C10.2118 127.863 10.4649 127.97 10.7314 128.025C10.998 128.08 11.2727 128.081 11.54 128.03C11.8072 127.978 12.0616 127.875 12.2887 127.725C12.5158 127.575 12.7111 127.382 12.8633 127.156Z" fill="#EC8970"/>
<path d="M2.3911 122.009C2.72996 122.238 3.1292 122.362 3.53835 122.364C3.94751 122.367 4.34819 122.248 4.68971 122.022C5.03124 121.797 5.29829 121.475 5.45706 121.098C5.61583 120.721 5.65919 120.306 5.58168 119.904C5.50417 119.502 5.30927 119.133 5.02161 118.842C4.73395 118.551 4.36647 118.352 3.96563 118.27C3.56479 118.188 3.14861 118.226 2.76971 118.381C2.39082 118.535 2.06623 118.798 1.837 119.137C1.52971 119.592 1.41545 120.149 1.51936 120.688C1.62327 121.226 1.93684 121.701 2.3911 122.009Z" fill="#EC8970"/>
<path d="M2.339 134.44C2.67848 134.67 3.07864 134.795 3.48882 134.797C3.89901 134.8 4.30079 134.681 4.64333 134.456C4.98586 134.23 5.25374 133.908 5.41309 133.53C5.57244 133.152 5.61609 132.735 5.53851 132.333C5.46092 131.93 5.2656 131.559 4.97725 131.268C4.6889 130.976 4.32049 130.776 3.91864 130.694C3.51678 130.612 3.09955 130.65 2.71973 130.805C2.33991 130.96 2.01458 131.224 1.78491 131.564C1.47738 132.019 1.36298 132.577 1.46687 133.117C1.57076 133.656 1.88442 134.132 2.339 134.44Z" fill="#EC8970"/>
<path d="M1.74988 145.933C2.08974 146.163 2.49007 146.287 2.90021 146.289C3.31035 146.291 3.71186 146.171 4.05397 145.945C4.39607 145.719 4.6634 145.396 4.82211 145.018C4.98083 144.64 5.02381 144.223 4.94561 143.821C4.86741 143.418 4.67156 143.048 4.38282 142.756C4.09408 142.465 3.72542 142.266 3.3235 142.184C2.92158 142.103 2.50445 142.142 2.12489 142.297C1.74533 142.453 1.42039 142.717 1.19117 143.057C0.884083 143.513 0.770437 144.072 0.875199 144.611C0.979961 145.15 1.29456 145.626 1.74988 145.933Z" fill="#EC8970"/>
<path d="M14.0138 137.272C13.6739 137.042 13.2736 136.919 12.8635 136.917C12.4533 136.915 12.0518 137.034 11.7097 137.26C11.3676 137.487 11.1003 137.809 10.9416 138.187C10.7828 138.565 10.7399 138.982 10.8181 139.385C10.8963 139.787 11.0921 140.157 11.3809 140.449C11.6696 140.74 12.0382 140.939 12.4402 141.021C12.8421 141.102 13.2592 141.063 13.6388 140.908C14.0183 140.752 14.3433 140.488 14.5725 140.148C14.8796 139.692 14.9932 139.134 14.8885 138.594C14.7837 138.055 14.4691 137.579 14.0138 137.272Z" fill="#EC8970"/>
<path d="M22.3285 145.295C21.989 145.065 21.5889 144.941 21.1787 144.938C20.7685 144.935 20.3667 145.054 20.0242 145.28C19.6816 145.505 19.4137 145.827 19.2544 146.205C19.095 146.583 19.0514 147 19.129 147.403C19.2066 147.805 19.4019 148.176 19.6902 148.468C19.9786 148.759 20.347 148.959 20.7489 149.041C21.1507 149.124 21.5679 149.085 21.9478 148.93C22.3276 148.775 22.6529 148.511 22.8826 148.171C23.1901 147.716 23.3045 147.158 23.2006 146.618C23.0967 146.079 22.7831 145.603 22.3285 145.295Z" fill="#EC8970"/>
<path d="M33.6012 141.596C33.2619 141.368 32.8626 141.245 32.4538 141.244C32.045 141.243 31.6449 141.362 31.3041 141.588C30.9634 141.814 30.6972 142.136 30.5392 142.513C30.3812 142.89 30.3385 143.305 30.4164 143.706C30.4944 144.108 30.6895 144.477 30.9771 144.767C31.2648 145.058 31.6321 145.257 32.0326 145.338C32.4332 145.42 32.849 145.382 33.2276 145.227C33.6063 145.073 33.9307 144.81 34.1599 144.472C34.467 144.016 34.5806 143.457 34.4759 142.918C34.3711 142.379 34.0565 141.903 33.6012 141.596Z" fill="#EC8970"/>
<path d="M26.0036 135.581C25.6657 135.348 25.2662 135.221 24.8558 135.215C24.4455 135.21 24.0427 135.326 23.6985 135.549C23.3542 135.773 23.0841 136.093 22.9222 136.47C22.7603 136.847 22.714 137.264 22.7891 137.667C22.8642 138.071 23.0574 138.443 23.3442 138.736C23.6309 139.03 23.9984 139.232 24.4 139.316C24.8016 139.401 25.2192 139.364 25.6001 139.211C25.9809 139.058 26.3077 138.796 26.5392 138.457C26.693 138.233 26.8011 137.981 26.8575 137.715C26.9138 137.449 26.9171 137.175 26.8674 136.908C26.8176 136.641 26.7158 136.386 26.5676 136.159C26.4194 135.931 26.2277 135.735 26.0036 135.581Z" fill="#EC8970"/>
<path d="M20.706 131.44C20.9356 131.1 21.0592 130.7 21.0613 130.29C21.0633 129.88 20.9436 129.479 20.7174 129.137C20.4911 128.795 20.1685 128.527 19.7903 128.369C19.4121 128.21 18.9954 128.167 18.5928 128.245C18.1901 128.323 17.8198 128.519 17.5285 128.808C17.2372 129.097 17.0381 129.465 16.9564 129.867C16.8747 130.269 16.914 130.686 17.0694 131.065C17.2248 131.445 17.4893 131.77 17.8294 131.999C18.0548 132.152 18.3081 132.258 18.5748 132.313C18.8416 132.367 19.1164 132.369 19.3837 132.317C19.6509 132.265 19.9053 132.161 20.1322 132.01C20.3591 131.86 20.5541 131.666 20.706 131.44Z" fill="#EC8970"/>
<path d="M29.7728 124.874C29.4333 124.644 29.0332 124.519 28.623 124.517C28.2128 124.514 27.811 124.633 27.4685 124.858C27.126 125.084 26.8581 125.406 26.6987 125.784C26.5394 126.162 26.4957 126.579 26.5733 126.981C26.6509 127.384 26.8462 127.755 27.1346 128.047C27.4229 128.338 27.7913 128.538 28.1932 128.62C28.595 128.702 29.0123 128.664 29.3921 128.509C29.7719 128.354 30.0972 128.09 30.3269 127.75C30.6345 127.295 30.7488 126.737 30.6449 126.197C30.5411 125.658 30.2274 125.182 29.7728 124.874Z" fill="#EC8970"/>
<path d="M23.8999 107.771C23.5605 107.541 23.1603 107.416 22.7501 107.414C22.3399 107.411 21.9381 107.53 21.5956 107.756C21.2531 107.981 20.9852 108.303 20.8258 108.681C20.6665 109.059 20.6228 109.476 20.7004 109.879C20.778 110.281 20.9733 110.652 21.2617 110.944C21.55 111.235 21.9184 111.435 22.3203 111.517C22.7222 111.599 23.1394 111.561 23.5192 111.406C23.899 111.251 24.2244 110.987 24.454 110.647C24.6069 110.422 24.7139 110.169 24.7688 109.902C24.8237 109.636 24.8254 109.361 24.7739 109.094C24.7225 108.827 24.6188 108.572 24.4688 108.345C24.3188 108.118 24.1255 107.923 23.8999 107.771Z" fill="#EC8970"/>
<path d="M31.8926 114.337C31.5528 114.108 31.1524 113.984 30.7423 113.982C30.3322 113.98 29.9306 114.1 29.5885 114.326C29.2464 114.552 28.9791 114.875 28.8204 115.253C28.6617 115.631 28.6187 116.048 28.6969 116.45C28.7751 116.853 28.971 117.223 29.2597 117.514C29.5484 117.805 29.9171 118.005 30.319 118.086C30.7209 118.168 31.138 118.129 31.5176 117.973C31.8972 117.818 32.2221 117.553 32.4513 117.213C32.604 116.988 32.7106 116.735 32.7652 116.468C32.8197 116.201 32.8211 115.927 32.7692 115.659C32.7173 115.392 32.6131 115.138 32.4627 114.911C32.3123 114.684 32.1186 114.489 31.8926 114.337Z" fill="#EC8970"/>
<path d="M39.7566 121.16C39.4171 120.93 39.017 120.806 38.6068 120.803C38.1966 120.8 37.7948 120.919 37.4523 121.145C37.1098 121.371 36.8419 121.693 36.6825 122.071C36.5232 122.449 36.4795 122.865 36.5571 123.268C36.6347 123.671 36.83 124.041 37.1184 124.333C37.4067 124.625 37.7751 124.824 38.177 124.907C38.5788 124.989 38.9961 124.95 39.3759 124.795C39.7557 124.64 40.081 124.376 40.3107 124.036C40.4636 123.811 40.5705 123.558 40.6254 123.292C40.6803 123.025 40.6821 122.751 40.6306 122.483C40.5792 122.216 40.4755 121.962 40.3255 121.735C40.1755 121.508 39.9822 121.313 39.7566 121.16Z" fill="#EC8970"/>
<path d="M36.8382 131.641C36.4983 131.412 36.098 131.288 35.6879 131.286C35.2777 131.284 34.8762 131.404 34.5341 131.63C34.192 131.856 33.9247 132.179 33.7659 132.557C33.6072 132.935 33.5643 133.352 33.6425 133.754C33.7207 134.157 33.9165 134.527 34.2053 134.818C34.494 135.11 34.8626 135.309 35.2646 135.39C35.6665 135.472 36.0836 135.433 36.4632 135.277C36.8427 135.122 37.1677 134.858 37.3969 134.518C37.5495 134.292 37.6562 134.039 37.7107 133.772C37.7653 133.505 37.7666 133.231 37.7147 132.963C37.6628 132.696 37.5587 132.442 37.4083 132.215C37.2578 131.988 37.0641 131.793 36.8382 131.641Z" fill="#EC8970"/>
<path d="M44.9228 137.577C44.583 137.35 44.1835 137.227 43.7744 137.226C43.3653 137.225 42.9649 137.344 42.6237 137.57C42.2826 137.796 42.0158 138.117 41.857 138.494C41.6982 138.871 41.6545 139.287 41.7314 139.688C41.8083 140.09 42.0024 140.46 42.2892 140.752C42.5759 141.044 42.9426 141.244 43.3431 141.328C43.7435 141.411 44.1597 141.375 44.5394 141.223C44.9191 141.07 45.2453 140.809 45.4769 140.472C45.6326 140.246 45.742 139.992 45.7984 139.723C45.8549 139.455 45.8575 139.178 45.8059 138.909C45.7543 138.639 45.6497 138.383 45.4981 138.154C45.3465 137.926 45.1509 137.73 44.9228 137.577Z" fill="#EC8970"/>
<path d="M53.3915 143.188C53.1278 143.008 52.8167 142.911 52.4975 142.908C52.1783 142.905 51.8655 142.997 51.5987 143.172C51.3319 143.348 51.1232 143.598 50.999 143.892C50.8748 144.186 50.8407 144.51 50.9011 144.824C50.9614 145.137 51.1135 145.425 51.338 145.652C51.5625 145.879 51.8493 146.034 52.1621 146.098C52.4749 146.161 52.7995 146.131 53.0948 146.01C53.3902 145.889 53.6429 145.683 53.8209 145.418C54.0583 145.065 54.1463 144.632 54.0659 144.214C53.9854 143.797 53.743 143.428 53.3915 143.188Z" fill="#EC8970"/>
<path d="M55.8152 134.303C55.4756 134.073 55.0756 133.95 54.6657 133.947C54.2558 133.945 53.8544 134.064 53.5122 134.29C53.17 134.515 52.9024 134.837 52.7432 135.215C52.584 135.593 52.5403 136.009 52.6177 136.412C52.6951 136.814 52.8901 137.184 53.1781 137.476C53.4661 137.768 53.834 137.968 54.2355 138.05C54.637 138.133 55.054 138.095 55.4338 137.941C55.8136 137.786 56.1391 137.523 56.3693 137.184C56.6771 136.728 56.7916 136.169 56.6877 135.629C56.5838 135.089 56.2701 134.612 55.8152 134.303Z" fill="#EC8970"/>
<path d="M47.513 127.792C47.1735 127.561 46.7733 127.437 46.3632 127.434C45.953 127.432 45.5512 127.551 45.2087 127.776C44.8661 128.002 44.5982 128.324 44.4389 128.702C44.2795 129.08 44.2359 129.496 44.3135 129.899C44.3911 130.302 44.5864 130.673 44.8747 130.964C45.1631 131.256 45.5315 131.456 45.9334 131.538C46.3352 131.62 46.7524 131.581 47.1323 131.426C47.5121 131.272 47.8374 131.008 48.0671 130.668C48.22 130.443 48.3269 130.19 48.3818 129.923C48.4367 129.657 48.4385 129.382 48.387 129.115C48.3355 128.848 48.2318 128.593 48.0818 128.366C47.9319 128.139 47.7385 127.944 47.513 127.792Z" fill="#EC8970"/>
<path d="M65.6746 134.306C65.3395 134.079 64.9445 133.957 64.5396 133.954C64.1348 133.952 63.7383 134.069 63.4004 134.292C63.0624 134.515 62.7983 134.833 62.6413 135.207C62.4844 135.58 62.4418 135.991 62.5188 136.388C62.5958 136.786 62.7891 137.151 63.0741 137.439C63.3591 137.726 63.723 137.923 64.1198 138.003C64.5165 138.084 64.9283 138.045 65.3029 137.892C65.6775 137.738 65.9981 137.477 66.2241 137.141C66.5263 136.692 66.6381 136.141 66.5351 135.61C66.4321 135.079 66.1227 134.61 65.6746 134.306Z" fill="#EC8970"/>
<path d="M73.811 130.665C73.7833 130.698 73.7325 130.693 73.7094 130.734C73.5582 130.938 73.4499 131.171 73.391 131.417C73.3321 131.664 73.3238 131.92 73.3666 132.171C73.4094 132.421 73.5024 132.659 73.6401 132.873C73.7777 133.086 73.9571 133.269 74.1675 133.411C74.3778 133.553 74.6148 133.651 74.864 133.699C75.1132 133.747 75.3695 133.744 75.6176 133.69C75.8656 133.636 76.1001 133.533 76.307 133.386C76.514 133.239 76.689 133.051 76.8216 132.835C77.0428 132.485 77.1365 132.069 77.0869 131.658C77.0373 131.247 76.8473 130.865 76.5491 130.578L73.811 130.665Z" fill="#EC8970"/>
<path d="M50.1236 117.893C49.7841 117.663 49.3839 117.538 48.9737 117.536C48.5636 117.533 48.1618 117.652 47.8192 117.877C47.4767 118.103 47.2088 118.425 47.0495 118.803C46.8901 119.181 46.8465 119.598 46.9241 120C47.0016 120.403 47.197 120.774 47.4853 121.065C47.7737 121.357 48.1421 121.557 48.5439 121.639C48.9458 121.721 49.363 121.683 49.7428 121.528C50.1227 121.373 50.448 121.109 50.6777 120.769C50.8305 120.544 50.9375 120.291 50.9924 120.024C51.0473 119.758 51.049 119.483 50.9976 119.216C50.9461 118.949 50.8424 118.694 50.6924 118.467C50.5424 118.24 50.3491 118.045 50.1236 117.893Z" fill="#EC8970"/>
<path d="M49.364 108.371C49.136 108.71 49.0135 109.109 49.0122 109.518C49.0109 109.927 49.1307 110.327 49.3566 110.667C49.5825 111.008 49.9043 111.274 50.2814 111.432C50.6584 111.59 51.0739 111.633 51.4752 111.555C51.8765 111.477 52.2458 111.282 52.5363 110.994C52.8268 110.707 53.0256 110.339 53.1075 109.939C53.1894 109.538 53.1508 109.123 52.9965 108.744C52.8422 108.366 52.5792 108.041 52.2407 107.812C51.7851 107.505 51.2262 107.391 50.6868 107.496C50.1474 107.601 49.6716 107.915 49.364 108.371Z" fill="#EC8970"/>
<path d="M51.3897 98.2399C51.1616 98.5792 51.0391 98.9784 51.0378 99.3871C51.0365 99.7959 51.1563 100.196 51.3822 100.537C51.6081 100.877 51.9299 101.143 52.307 101.301C52.6841 101.459 53.0995 101.502 53.5008 101.424C53.9022 101.346 54.2714 101.151 54.5619 100.863C54.8524 100.576 55.0512 100.209 55.1331 99.8082C55.215 99.4077 55.1764 98.992 55.0221 98.6134C54.8679 98.2349 54.6049 97.9105 54.2664 97.6813C53.8107 97.3743 53.2518 97.2607 52.7124 97.3654C52.173 97.4702 51.6973 97.7847 51.3897 98.2399Z" fill="#EC8970"/>
<path d="M61.2773 95.024C61.0471 95.3634 60.9227 95.7634 60.92 96.1736C60.9172 96.5837 61.0362 96.9854 61.2619 97.3278C61.4876 97.6703 61.8098 97.9381 62.1878 98.0975C62.5658 98.2568 62.9825 98.3004 63.3853 98.2228C63.7881 98.1453 64.1588 97.95 64.4506 97.6617C64.7423 97.3734 64.942 97.0051 65.0243 96.6033C65.1065 96.2015 65.0678 95.7844 64.9129 95.4046C64.758 95.0249 64.4939 94.6996 64.154 94.47C63.6985 94.1637 63.1404 94.0501 62.6014 94.1539C62.0624 94.2577 61.5864 94.5705 61.2773 95.024Z" fill="#EC8970"/>
<path d="M53.5599 88.0214C53.3318 88.3607 53.2093 88.7599 53.208 89.1686C53.2067 89.5774 53.3265 89.9773 53.5524 90.318C53.7783 90.6587 54.1001 90.9249 54.4772 91.0828C54.8542 91.2408 55.2697 91.2835 55.671 91.2056C56.0723 91.1277 56.4416 90.9326 56.7321 90.645C57.0226 90.3574 57.2214 89.9901 57.3033 89.5897C57.3852 89.1892 57.3466 88.7735 57.1923 88.3949C57.038 88.0164 56.775 87.692 56.4365 87.4628C55.9809 87.1558 55.422 87.0422 54.8826 87.1469C54.3432 87.2517 53.8674 87.5662 53.5599 88.0214Z" fill="#EC8970"/>
<path d="M63.8275 87.5097C64.167 87.7399 64.5672 87.8643 64.9774 87.867C65.3875 87.8698 65.7893 87.7508 66.1318 87.5252C66.4744 87.2995 66.7423 86.9774 66.9016 86.5995C67.061 86.2216 67.1046 85.8049 67.027 85.4022C66.9494 84.9995 66.7541 84.6288 66.4658 84.3371C66.1774 84.0454 65.809 83.8458 65.4072 83.7635C65.0053 83.6813 64.5881 83.72 64.2083 83.8749C63.8284 84.0298 63.5031 84.2938 63.2734 84.6336C62.9659 85.0886 62.8515 85.647 62.9554 86.1863C63.0593 86.7255 63.373 87.2015 63.8275 87.5097Z" fill="#EC8970"/>
<path d="M79.2778 100.77C79.6171 100.998 80.0163 101.121 80.4252 101.122C80.834 101.123 81.234 101.004 81.5748 100.778C81.9156 100.552 82.1818 100.23 82.3398 99.8531C82.4978 99.4761 82.5405 99.0608 82.4625 98.6595C82.3846 98.2583 82.1895 97.8891 81.9018 97.5986C81.6142 97.3082 81.2469 97.1095 80.8463 97.0276C80.4458 96.9457 80.0299 96.9843 79.6513 97.1385C79.2727 97.2928 78.9483 97.5557 78.719 97.8942C78.412 98.3497 78.2983 98.9085 78.4031 99.4478C78.5078 99.9871 78.8224 100.463 79.2778 100.77Z" fill="#EC8970"/>
<path d="M59.3288 105.387C59.0986 105.726 58.9742 106.126 58.9715 106.536C58.9687 106.946 59.0877 107.348 59.3134 107.691C59.5391 108.033 59.8613 108.301 60.2393 108.46C60.6173 108.619 61.034 108.663 61.4368 108.586C61.8396 108.508 62.2103 108.313 62.5021 108.024C62.7938 107.736 62.9935 107.368 63.0758 106.966C63.1581 106.564 63.1193 106.147 62.9644 105.767C62.8095 105.388 62.5454 105.062 62.2055 104.833C61.9804 104.68 61.7273 104.573 61.4607 104.518C61.1942 104.463 60.9194 104.461 60.6522 104.513C60.385 104.564 60.1305 104.668 59.9034 104.818C59.6763 104.968 59.4811 105.161 59.3288 105.387Z" fill="#EC8970"/>
<path d="M77.4415 111.534C77.781 111.764 78.1812 111.888 78.5914 111.891C79.0015 111.894 79.4033 111.775 79.7459 111.549C80.0884 111.323 80.3563 111.001 80.5156 110.623C80.675 110.245 80.7186 109.829 80.641 109.426C80.5635 109.023 80.3681 108.653 80.0798 108.361C79.7914 108.069 79.423 107.87 79.0212 107.787C78.6193 107.705 78.2021 107.744 77.8223 107.899C77.4424 108.054 77.1171 108.318 76.8874 108.658C76.5799 109.113 76.4655 109.671 76.5694 110.21C76.6733 110.749 76.987 111.225 77.4415 111.534Z" fill="#EC8970"/>
<path d="M87.1952 106.867C87.5347 107.097 87.9348 107.221 88.345 107.224C88.7552 107.227 89.157 107.108 89.4995 106.882C89.8421 106.657 90.11 106.334 90.2693 105.957C90.4286 105.579 90.4723 105.162 90.3947 104.759C90.3171 104.357 90.1218 103.986 89.8335 103.694C89.5451 103.402 89.1767 103.203 88.7748 103.121C88.373 103.038 87.9557 103.077 87.5759 103.232C87.1961 103.387 86.8708 103.651 86.6411 103.991C86.3336 104.446 86.2192 105.004 86.3231 105.543C86.427 106.083 86.7406 106.559 87.1952 106.867Z" fill="#EC8970"/>
<path d="M97.9554 109.008C97.6159 108.778 97.2157 108.653 96.8055 108.651C96.3953 108.648 95.9936 108.767 95.651 108.993C95.3085 109.218 95.0406 109.54 94.8813 109.918C94.7219 110.296 94.6783 110.713 94.7559 111.115C94.8334 111.518 95.0288 111.889 95.3171 112.181C95.6055 112.472 95.9739 112.672 96.3757 112.754C96.7776 112.836 97.1948 112.798 97.5746 112.643C97.9545 112.488 98.2798 112.224 98.5095 111.884C98.6623 111.659 98.7693 111.406 98.8242 111.139C98.8791 110.873 98.8808 110.598 98.8294 110.331C98.7779 110.064 98.6742 109.809 98.5242 109.582C98.3742 109.355 98.1809 109.16 97.9554 109.008Z" fill="#EC8970"/>
<path d="M85.7128 117.507C86.0526 117.737 86.453 117.861 86.8631 117.863C87.2732 117.865 87.6748 117.745 88.0169 117.519C88.359 117.293 88.6263 116.97 88.785 116.592C88.9437 116.214 88.9867 115.797 88.9085 115.395C88.8303 114.992 88.6344 114.622 88.3457 114.33C88.057 114.039 87.6883 113.84 87.2864 113.758C86.8845 113.677 86.4674 113.716 86.0878 113.871C85.7082 114.027 85.3833 114.291 85.1541 114.631C85.0014 114.857 84.8947 115.11 84.8402 115.377C84.7857 115.643 84.7843 115.918 84.8362 116.185C84.8881 116.452 84.9923 116.707 85.1427 116.934C85.2931 117.161 85.4868 117.356 85.7128 117.507Z" fill="#EC8970"/>
<path d="M106.67 114.671C106.334 114.443 105.937 114.32 105.531 114.318C105.125 114.315 104.727 114.434 104.387 114.657C104.048 114.881 103.783 115.2 103.625 115.575C103.467 115.949 103.424 116.362 103.501 116.761C103.578 117.16 103.771 117.527 104.057 117.816C104.342 118.105 104.707 118.303 105.105 118.385C105.503 118.466 105.917 118.428 106.293 118.275C106.67 118.122 106.992 117.861 107.22 117.524C107.371 117.301 107.477 117.05 107.531 116.785C107.586 116.521 107.587 116.249 107.536 115.984C107.485 115.719 107.382 115.467 107.234 115.241C107.085 115.016 106.894 114.822 106.67 114.671Z" fill="#EC8970"/>
<path d="M108.097 104.356C107.757 104.126 107.357 104.002 106.947 103.999C106.537 103.996 106.135 104.115 105.792 104.341C105.45 104.566 105.182 104.888 105.023 105.266C104.863 105.644 104.82 106.061 104.897 106.464C104.975 106.866 105.17 107.237 105.458 107.529C105.747 107.82 106.115 108.02 106.517 108.102C106.919 108.185 107.336 108.146 107.716 107.991C108.096 107.836 108.421 107.572 108.651 107.232C108.804 107.007 108.911 106.754 108.966 106.488C109.02 106.221 109.022 105.946 108.971 105.679C108.919 105.412 108.816 105.158 108.666 104.931C108.516 104.704 108.322 104.508 108.097 104.356Z" fill="#EC8970"/>
<path d="M38.4962 27.4184C38.9508 27.6779 39.4868 27.7559 39.9965 27.6366C40.5062 27.5174 40.9519 27.2098 41.2442 26.7756C41.5365 26.3414 41.6536 25.8127 41.5721 25.2957C41.4907 24.7787 41.2166 24.3116 40.8049 23.9883C40.393 23.7285 39.9009 23.6268 39.4197 23.7021L39.2396 23.7021C38.8392 23.7808 38.4711 23.9766 38.1822 24.2648C37.8933 24.5529 37.6965 24.9204 37.6169 25.3206C37.5372 25.7207 37.5783 26.1356 37.7348 26.5124C37.8914 26.8891 38.1564 27.2109 38.4962 27.4369L38.4962 27.4184Z" fill="#EC8970"/>
<path d="M48.9418 22.6569C49.1666 22.8282 49.424 22.9518 49.6983 23.02C49.9727 23.0882 50.258 23.0996 50.5369 23.0535C50.8158 23.0074 51.0823 22.9048 51.3201 22.7519C51.5578 22.5991 51.7618 22.3992 51.9195 22.1647C52.0772 21.9301 52.1852 21.6658 52.2369 21.3879C52.2887 21.1101 52.2831 20.8246 52.2204 20.549C52.1577 20.2734 52.0394 20.0135 51.8726 19.7854C51.7058 19.5572 51.4941 19.3655 51.2505 19.2222C50.8378 18.9644 50.3458 18.8643 49.8652 18.9405L49.6852 18.9405C49.2847 19.0192 48.9167 19.2151 48.6278 19.5032C48.3389 19.7914 48.1421 20.1589 48.0624 20.559C47.9828 20.9592 48.0238 21.374 48.1804 21.7508C48.3369 22.1276 48.6019 22.4494 48.9418 22.6753L48.9418 22.6569Z" fill="#EC8970"/>
<path d="M38.4984 16.2052C38.953 16.4647 39.489 16.5426 39.9987 16.4234C40.5084 16.3042 40.9541 15.9965 41.2464 15.5623C41.5387 15.1281 41.6558 14.5994 41.5743 14.0824C41.4929 13.5654 41.2188 13.0984 40.8071 12.7751C40.3952 12.5153 39.9031 12.4136 39.4219 12.4888L39.2418 12.4888C38.8414 12.5675 38.4733 12.7633 38.1844 13.0515C37.8955 13.3397 37.6987 13.7071 37.6191 14.1073C37.5394 14.5075 37.5805 14.9223 37.737 15.2991C37.8936 15.6759 38.1586 15.9977 38.4984 16.2236L38.4984 16.2052Z" fill="#EC8970"/>
<path d="M27.4977 20.0499C27.7225 20.2213 27.9799 20.3449 28.2542 20.4131C28.5286 20.4813 28.8139 20.4927 29.0928 20.4466C29.3717 20.4005 29.6382 20.2979 29.876 20.145C30.1137 19.9922 30.3177 19.7923 30.4754 19.5577C30.6331 19.3232 30.7411 19.0588 30.7928 18.781C30.8446 18.5031 30.839 18.2177 30.7763 17.9421C30.7136 17.6665 30.5953 17.4066 30.4285 17.1784C30.2617 16.9503 30.05 16.7586 29.8064 16.6152C29.3937 16.3574 28.9018 16.2574 28.4211 16.3336L28.2411 16.3336C27.8406 16.4123 27.4726 16.6081 27.1837 16.8963C26.8948 17.1844 26.698 17.5519 26.6183 17.9521C26.5387 18.3522 26.5797 18.7671 26.7363 19.1439C26.8929 19.5207 27.1579 19.8424 27.4977 20.0684L27.4977 20.0499Z" fill="#EC8970"/>
<path d="M18.4238 22.6555C18.8793 22.9235 19.4198 23.0076 19.9351 22.8904C20.4505 22.7733 20.9016 22.4639 21.1963 22.0254C21.4911 21.5869 21.6073 21.0523 21.5211 20.5311C21.4349 20.0098 21.1528 19.5411 20.7326 19.2208C20.3196 18.9638 19.8279 18.8638 19.3473 18.9392L19.1673 18.9392C18.9044 18.9897 18.6541 19.0916 18.4307 19.2389C18.2073 19.3862 18.0151 19.5762 17.8651 19.7978C17.5639 20.252 17.4536 20.8064 17.5581 21.3413C17.6627 21.8761 17.9737 22.3482 18.4238 22.6555Z" fill="#EC8970"/>
<path d="M10.7879 23.0196C11.0621 23.2223 11.3821 23.3543 11.7195 23.4038C12.0569 23.4533 12.4013 23.4188 12.7222 23.3034C13.0431 23.188 13.3306 22.9953 13.5592 22.7422C13.7877 22.4892 13.9503 22.1836 14.0326 21.8527C14.1148 21.5218 14.1141 21.1758 14.0306 20.8452C13.947 20.5146 13.7832 20.2097 13.5537 19.9576C13.3241 19.7055 13.0358 19.5138 12.7145 19.3997C12.3931 19.2856 12.0486 19.2525 11.7114 19.3033L11.5313 19.3033C11.1319 19.3833 10.7651 19.5796 10.4771 19.8675C10.1891 20.1555 9.99272 20.5222 9.91275 20.9215C9.83277 21.3208 9.87276 21.7349 10.0277 22.1115C10.1826 22.4881 10.4454 22.8105 10.7832 23.0381L10.7879 23.0196Z" fill="#EC8970"/>
<path d="M18.4226 13.2768C18.878 13.5449 19.4186 13.6289 19.9339 13.5118C20.4492 13.3947 20.9004 13.0852 21.1951 12.6467C21.4899 12.2082 21.606 11.6737 21.5198 11.1524C21.4336 10.6311 21.1516 10.1624 20.7314 9.84211C20.3184 9.5851 19.8267 9.48516 19.3461 9.56051L19.166 9.56051C18.9032 9.61106 18.6529 9.71291 18.4295 9.86025C18.206 10.0076 18.0139 10.1975 17.8639 10.4192C17.5626 10.8733 17.4523 11.4278 17.5569 11.9626C17.6615 12.4974 17.9725 12.9696 18.4226 13.2768Z" fill="#EC8970"/>
</g>
<defs>
<clipPath id="clip0_2_715">
<rect width="158.226" height="148.976" fill="white" transform="translate(159.061 149.085) rotate(-180)"/>
</clipPath>
</defs>
</svg>
