<svg width="255" height="183" viewBox="0 0 255 183" fill="none" xmlns="http://www.w3.org/2000/svg">
<path d="M155.786 65.9883L22.79 104.156C16.3589 106.001 11.9277 111.883 11.9277 118.574V145.969C11.9277 155.942 21.4794 163.138 31.0655 160.387L164.061 122.219C170.492 120.373 174.923 114.492 174.923 107.801V80.4063C174.923 70.4333 165.372 63.2373 155.786 65.9883Z" fill="#FC9813"/>
<path d="M155.786 65.9883L22.79 104.156C16.3589 106.001 11.9277 111.883 11.9277 118.574V145.969C11.9277 155.942 21.4794 163.138 31.0655 160.387L164.061 122.219C170.492 120.373 174.923 114.492 174.923 107.801V80.4063C174.923 70.4333 165.372 63.2373 155.786 65.9883Z" fill="#EC8970"/>
<path d="M189.81 5.57889L10.8122 57.6227C4.40608 59.4853 0 65.3549 0 72.0262V101.062C0 111.042 9.56401 118.239 19.1536 115.475L198.151 63.892C204.575 62.041 208.998 56.1631 208.998 49.4786V19.9824C208.998 9.9877 199.407 2.78847 189.81 5.57889Z" fill="#3E4142"/>
<g filter="url(#filter0_b_2_711)">
<path d="M235.812 67.3758L56.8141 119.42C50.408 121.282 46.002 127.152 46.002 133.823V162.859C46.002 172.839 55.566 180.036 65.1556 177.272L244.153 125.689C250.576 123.838 255 117.96 255 111.275V81.7793C255 71.7846 245.409 64.5853 235.812 67.3758Z" fill="black" fill-opacity="0.04"/>
<path d="M56.9537 119.9L235.951 67.8559C245.229 65.1585 254.5 72.1177 254.5 81.7793V111.275C254.5 117.737 250.224 123.419 244.015 125.208L65.0171 176.792C55.7472 179.463 46.502 172.506 46.502 162.859V133.823C46.502 127.374 50.7612 121.7 56.9537 119.9Z" stroke="white"/>
</g>
<defs>
<filter id="filter0_b_2_711" x="15.002" y="35.77" width="270.998" height="173.098" filterUnits="userSpaceOnUse" color-interpolation-filters="sRGB">
<feFlood flood-opacity="0" result="BackgroundImageFix"/>
<feGaussianBlur in="BackgroundImageFix" stdDeviation="15.5"/>
<feComposite in2="SourceAlpha" operator="in" result="effect1_backgroundBlur_2_711"/>
<feBlend mode="normal" in="SourceGraphic" in2="effect1_backgroundBlur_2_711" result="shape"/>
</filter>
</defs>
</svg>
