<svg width="71" height="70" viewBox="0 0 71 70" fill="none" xmlns="http://www.w3.org/2000/svg">
<g clip-path="url(#clip0_2_1226)">
<path d="M15.0498 25.9766C15.0498 37.2847 24.2495 46.4844 35.5577 46.4844C46.8658 46.4844 56.0655 37.2847 56.0655 25.9766C56.0655 14.6684 46.8658 5.46875 35.5577 5.46875C24.2495 5.46875 15.0498 14.6684 15.0498 25.9766ZM35.5577 8.20313C45.3582 8.20313 53.3311 16.1761 53.3311 25.9766C53.3311 35.7771 45.3582 43.7501 35.5577 43.7501C25.7571 43.7501 17.7842 35.7771 17.7842 25.9766C17.7842 16.1761 25.7571 8.20313 35.5577 8.20313Z" fill="white"/>
<path d="M22.895 23.5388L28.1945 28.7603L26.9752 36.0988C26.8903 36.6099 27.1013 37.1247 27.5205 37.4292C27.9392 37.7336 28.4941 37.7747 28.9539 37.5365L35.5565 34.1079L42.1585 37.5365C42.6146 37.7731 43.1695 37.7362 43.5919 37.4292C44.0112 37.1247 44.2221 36.6099 44.1372 36.0988L42.9179 28.7603L48.2174 23.5388C48.5864 23.1757 48.7184 22.6352 48.5581 22.1423C48.3979 21.6499 47.9733 21.2904 47.4612 21.213L40.1067 20.1059L36.7789 13.451C36.5477 12.988 36.074 12.6953 35.5565 12.6953C35.0384 12.6953 34.5653 12.988 34.3335 13.451L31.0058 20.1059L23.6513 21.213C23.1391 21.2899 22.7145 21.6499 22.5543 22.1423C22.3941 22.6352 22.5265 23.1757 22.895 23.5388ZM32.115 22.7041C32.5551 22.6379 32.9353 22.3618 33.1345 21.9639L35.5565 17.1195L37.9784 21.9639C38.1776 22.3618 38.5579 22.6379 38.998 22.7041L44.3508 23.51L40.4933 27.3098C40.1766 27.6222 40.0314 28.0693 40.104 28.5082L40.9916 33.8494L36.1861 31.3542C35.9891 31.2517 35.7728 31.2004 35.5565 31.2004C35.3402 31.2004 35.1239 31.2517 34.9263 31.3542L30.1208 33.8494L31.0084 28.5082C31.0816 28.0693 30.9363 27.6222 30.6191 27.3098L26.7621 23.51L32.115 22.7041Z" fill="#ED719B"/>
<path d="M36.9248 1.36719C36.9248 2.12235 36.3128 2.73438 35.5576 2.73438C34.8025 2.73438 34.1904 2.12235 34.1904 1.36719C34.1904 0.612031 34.8025 0 35.5576 0C36.3128 0 36.9248 0.612031 36.9248 1.36719Z" fill="white"/>
<path d="M29.1142 0.804592C17.6133 3.74031 9.58105 14.0909 9.58105 25.9753C9.58105 33.3565 12.6845 40.3116 18.1324 45.2372L9.89562 59.7534C9.63072 60.2207 9.66383 60.7996 9.98 61.2333C10.2962 61.6675 10.8366 61.8763 11.3627 61.7668L20.7167 59.8245L24.0044 69.0888C24.1827 69.5929 24.6394 69.9459 25.1724 69.9935C25.7053 70.041 26.2164 69.7724 26.4808 69.3072L35.5577 53.3495L44.634 69.3072C44.8786 69.7371 45.3336 69.9983 45.8217 69.9983C45.8618 69.9983 45.9024 69.9967 45.9424 69.9935C46.4754 69.9459 46.932 69.5924 47.1109 69.0888L50.3981 59.8245L59.7521 61.7668C60.2776 61.8758 60.8186 61.667 61.1348 61.2333C61.4515 60.7996 61.4841 60.2207 61.2192 59.7534L52.9824 45.2372C58.4303 40.3116 61.5337 33.3565 61.5337 25.9753C61.5337 14.0909 53.5015 3.74031 42.0011 0.804592C41.2689 0.617672 40.5249 1.05934 40.338 1.791C40.1511 2.52266 40.5928 3.26714 41.3244 3.45406C51.6136 6.08056 58.7999 15.3417 58.7999 25.9753C58.7999 38.9171 48.2891 49.2175 35.5577 49.2175C22.8172 49.2175 12.3154 38.9086 12.3154 25.9753C12.3154 15.3417 19.5012 6.08056 29.7904 3.45406C30.522 3.26714 30.9637 2.52266 30.7773 1.791C30.5904 1.05934 29.8464 0.617672 29.1142 0.804592ZM25.582 65.3578L22.8951 57.7865C22.6666 57.1424 21.9979 56.7659 21.3287 56.9048L13.7649 58.4754L20.2836 46.9868C24.0845 49.75 28.585 51.4333 33.2649 51.8499L25.582 65.3578ZM49.786 56.9048C49.1174 56.7659 48.4482 57.1424 48.2196 57.7865L45.5333 65.3578L37.8498 51.8499C42.5303 51.4333 47.0303 49.75 50.8317 46.9868L57.3504 58.4754L49.786 56.9048Z" fill="white"/>
</g>
<defs>
<clipPath id="clip0_2_1226">
<rect width="70" height="70" fill="white" transform="translate(0.420898)"/>
</clipPath>
</defs>
</svg>
