<svg width="71" height="70" viewBox="0 0 71 70" fill="none" xmlns="http://www.w3.org/2000/svg">
<g clip-path="url(#clip0_2_1249)">
<path fill-rule="evenodd" clip-rule="evenodd" d="M29.2682 68.9065C28.858 68.9065 28.4479 68.7698 28.0377 68.6331C26.8072 67.9495 25.8502 66.5823 25.3033 65.2151C24.2096 65.3518 23.3893 65.0784 22.9791 64.6682C22.0221 64.1213 21.4752 63.0276 21.3385 62.2073C19.9713 62.4807 19.0143 62.2073 18.194 61.6604C17.3737 60.9768 17.1002 60.0198 16.9635 59.1995C14.9127 59.4729 14.0924 58.6526 13.6822 57.969C12.8619 56.6018 13.2721 54.551 14.0924 53.8674C15.8697 52.3635 17.6471 50.8596 19.4244 49.219C22.7057 46.3479 26.2604 43.3401 29.6783 40.3323C29.8151 40.1956 29.9518 40.0588 30.2252 40.0588L32.1393 39.9221C34.3268 39.6487 36.7877 41.9729 38.5651 43.6135L38.9752 44.0237C39.6588 44.5706 40.6158 44.5706 41.026 44.1604C41.7096 43.6135 41.5729 42.5198 40.7526 41.2893C40.4791 41.0159 40.3424 40.6057 40.069 40.1956C39.5221 39.2385 38.9752 38.4182 38.4283 37.7346C37.3346 36.3674 33.5065 34.8635 32.1393 34.4534C28.858 33.3596 26.8072 34.4534 26.6705 34.5901L19.151 39.1018C19.0143 39.2385 18.7408 39.2385 18.6041 39.2385L15.4596 39.512C14.9127 39.512 14.3658 39.1018 14.3658 38.5549C14.3658 38.0081 14.776 37.4612 15.3229 37.4612L18.194 37.1877L25.5768 32.8127C25.8502 32.676 28.4479 31.1721 32.8229 32.4026C33.3697 32.676 38.2916 34.3166 40.069 36.3674C40.7526 37.1877 41.2994 38.1448 41.8463 39.1018C42.1197 39.512 42.2565 39.9221 42.5299 40.1956C44.1705 42.7932 43.4869 44.7073 42.3932 45.6643C41.026 46.7581 38.9752 46.7581 37.608 45.5276C37.4713 45.3909 37.3346 45.2541 37.1979 45.1174C35.9674 44.0237 33.5065 41.8362 32.276 41.9729L30.7721 42.1096C27.3541 44.9807 24.0729 47.9885 20.7916 50.8596C19.0143 52.3635 17.2369 53.8674 15.4596 55.3713C15.3229 55.6448 15.1862 56.4651 15.4596 56.8752C15.733 57.2854 16.5533 57.2854 17.6471 56.8752C17.9205 56.7385 18.3307 56.8752 18.6041 57.012C18.8776 57.2854 19.0143 57.6956 19.0143 57.969C18.8776 58.3792 18.8776 59.6096 19.5612 60.0198C20.108 60.4299 21.0651 60.2932 21.8854 60.0198C22.1588 59.8831 22.4322 59.8831 22.7057 60.1565C22.9791 60.2932 23.2526 60.5667 23.2526 60.9768C23.2526 61.387 23.3893 62.6174 24.0729 63.0276C24.483 63.301 25.0299 63.1643 25.8502 62.8909C26.1237 62.7542 26.3971 62.8909 26.6705 63.0276C26.944 63.1643 27.2174 63.4377 27.2174 63.8479C27.2174 64.8049 28.0377 66.3088 28.858 66.719C29.2682 66.8557 29.5416 66.8557 29.8151 66.5823L33.233 64.3948L33.7799 63.9846C34.1901 63.5745 34.8737 63.7112 35.1471 64.1213C35.5572 64.6682 35.4205 65.2151 35.0104 65.6252L34.4635 66.0354L31.0455 68.3596C30.4987 68.7698 29.9518 68.9065 29.2682 68.9065ZM50.5963 53.8674C50.3229 53.8674 49.9127 53.7307 49.776 53.4573C49.3658 52.9104 49.5026 52.3635 49.9127 51.9534L55.108 48.262C55.5182 47.8518 56.2018 47.9885 56.4752 48.3987C56.8854 48.8088 56.7487 49.4924 56.3385 49.9026L51.1432 53.594C51.0065 53.7307 50.733 53.8674 50.5963 53.8674Z" fill="white"/>
<path fill-rule="evenodd" clip-rule="evenodd" d="M14.9126 55.5083C14.7759 55.5083 14.6392 55.5083 14.5024 55.3716L9.99072 53.3208C9.44384 53.0474 9.30712 52.5005 9.44384 51.9536C9.71728 51.4067 10.4009 51.27 10.811 51.4067L15.4595 53.5942C15.8696 53.8677 16.1431 54.4145 15.8696 54.9614C15.7329 55.3716 15.3227 55.5083 14.9126 55.5083Z" fill="white"/>
<path fill-rule="evenodd" clip-rule="evenodd" d="M45.8131 37.05C43.3521 37.05 42.3951 36.5031 41.1646 35.5461C40.3443 34.9992 39.3873 34.3156 36.9264 33.632C35.8326 33.3586 33.6451 33.4953 33.0982 34.0422C32.8248 34.4523 32.1412 34.5891 31.731 34.1789C31.3209 33.9055 31.1842 33.2219 31.5943 32.8117C32.8248 31.1711 36.106 31.3078 37.4732 31.718C40.2076 32.4016 41.4381 33.2219 42.3951 33.9055C43.4889 34.7258 44.1725 35.1359 48.0006 34.8625C48.5475 34.7258 49.0943 35.1359 49.0943 35.6828C49.231 36.3664 48.8209 36.7766 48.1373 36.9133C47.317 36.9133 46.4967 37.05 45.8131 37.05Z" fill="white"/>
<path fill-rule="evenodd" clip-rule="evenodd" d="M49.6396 59.1989C49.3661 59.1989 49.2294 59.1989 49.0927 59.1989C48.1357 59.0622 47.3154 58.5153 46.7685 57.8317C46.3583 57.2848 46.495 56.738 46.9052 56.3278C47.4521 56.0544 47.999 56.0544 48.4091 56.6012C48.5458 56.8747 48.956 57.0114 49.3661 57.1481C49.7763 57.1481 50.1865 57.1481 50.4599 56.8747C50.7333 56.6012 51.0068 56.3278 51.0068 55.9177C51.1435 55.5075 51.0068 55.0973 50.7333 54.8239L47.7255 50.7223C47.4521 50.4489 47.1786 50.1755 46.7685 50.1755C46.3583 50.0387 45.9482 50.1755 45.6747 50.4489C45.4013 50.7223 45.1279 50.9958 45.1279 51.4059C44.9911 51.8161 45.1279 52.2262 45.4013 52.4997C45.6747 52.9098 45.6747 53.5934 45.1279 54.0036C44.7177 54.277 44.0341 54.1403 43.7607 53.7302C43.2138 53.0466 42.9404 52.0895 43.0771 51.1325C43.2138 50.1755 43.624 49.3552 44.4443 48.8083C45.1279 48.2614 46.0849 47.988 47.0419 48.1247C47.999 48.2614 48.8193 48.8083 49.3661 49.4919L52.374 53.5934C52.9208 54.277 53.1943 55.2341 53.0575 56.1911C52.9208 57.1481 52.5107 57.9684 51.6904 58.5153C51.0068 58.9255 50.3232 59.1989 49.6396 59.1989Z" fill="white"/>
<path fill-rule="evenodd" clip-rule="evenodd" d="M46.6318 63.5742C45.4014 63.5742 44.4443 63.0273 43.7607 62.207L38.5654 55.3711C37.4717 53.7305 37.7451 51.543 39.3857 50.4492C39.9326 49.9023 40.7529 49.6289 41.4365 49.6289C42.5303 49.6289 43.624 50.1758 44.3076 51.1328L49.3662 57.9688C50.5967 59.4727 50.3232 61.7969 48.6826 62.8906C48.1357 63.4375 47.3154 63.5742 46.6318 63.5742ZM41.4365 51.8164C41.1631 51.8164 40.8896 51.8164 40.6162 52.0898C39.9326 52.5 39.7959 53.457 40.3428 54.1406L45.4014 60.9766C45.6748 61.3867 46.085 61.5234 46.6318 61.5234C46.9053 61.5234 47.1787 61.3867 47.4521 61.25C48.1357 60.8398 48.2725 59.8828 47.7256 59.1992L42.667 52.3633C42.3936 51.9531 41.9834 51.8164 41.4365 51.8164Z" fill="white"/>
<path fill-rule="evenodd" clip-rule="evenodd" d="M42.2563 66.3086C42.1196 66.3086 41.9829 66.3086 41.7095 66.1719C40.7524 66.0352 39.9321 65.625 39.3852 64.8047C39.1118 64.3945 39.1118 63.7109 39.6587 63.4375C40.0688 63.0273 40.7524 63.1641 41.0259 63.5742C41.2993 63.9844 41.7095 64.1211 41.9829 64.1211C42.3931 64.2578 42.8032 64.1211 43.2134 63.8477C43.7602 63.4375 43.897 62.4805 43.4868 61.7969C43.0767 61.3867 43.2134 60.7031 43.6235 60.4297C44.1704 60.0195 44.7173 60.1562 45.1274 60.5664C46.2212 62.207 45.9477 64.3945 44.4438 65.625C43.7602 66.0352 43.0767 66.3086 42.2563 66.3086ZM35.9673 59.4727C35.5571 59.4727 35.2837 59.3359 35.0102 59.0625C34.4634 58.2422 34.3267 57.2852 34.4634 56.3281C34.6001 55.5078 35.0102 54.5508 35.8306 54.0039C37.3345 52.9102 39.6587 53.1836 40.7524 54.8242C41.1626 55.2344 41.0259 55.918 40.6157 56.1914C40.0688 56.6016 39.522 56.4648 39.1118 56.0547C38.5649 55.3711 37.7446 55.2344 37.061 55.6445C36.7876 55.918 36.5142 56.3281 36.5142 56.7383C36.3774 57.0117 36.5142 57.4219 36.7876 57.832C37.061 58.2422 36.9243 58.9258 36.5142 59.1992C36.3774 59.3359 36.104 59.4727 35.9673 59.4727Z" fill="white"/>
<path fill-rule="evenodd" clip-rule="evenodd" d="M38.0185 69.043C36.9247 69.043 35.831 68.4961 35.1474 67.5391L31.0458 61.9336C30.499 61.25 30.2255 60.293 30.3622 59.3359C30.499 58.3789 31.0458 57.5586 31.7294 57.0117C32.413 56.6016 33.0966 56.3281 33.9169 56.3281C35.0107 56.3281 36.1044 56.875 36.6513 57.6953L40.8896 63.3008C41.9833 64.9414 41.7099 67.1289 40.206 68.3594C39.5224 68.7695 38.8388 69.043 38.0185 69.043ZM33.9169 58.3789C33.5068 58.3789 33.2333 58.5156 32.9599 58.6523C32.6865 58.9258 32.413 59.1992 32.413 59.6094C32.2763 60.0195 32.413 60.4297 32.6865 60.7031L36.788 66.3086C37.0615 66.7188 37.6083 66.9922 38.0185 66.9922C38.2919 66.9922 38.7021 66.8555 38.9755 66.7188C39.5224 66.1719 39.6591 65.2148 39.249 64.5312L35.0107 58.9258C34.7372 58.6523 34.3271 58.3789 33.9169 58.3789Z" fill="white"/>
<path fill-rule="evenodd" clip-rule="evenodd" d="M17.9202 58.9248C17.6467 58.9248 17.3733 58.7881 17.2366 58.6514C16.8264 58.2412 16.8264 57.5576 17.2366 57.1475L22.0217 52.3623C22.2952 51.9521 22.9788 51.9521 23.3889 52.3623C23.7991 52.7725 23.7991 53.4561 23.3889 53.8662L18.7405 58.5146C18.467 58.7881 18.1936 58.9248 17.9202 58.9248Z" fill="white"/>
<path fill-rule="evenodd" clip-rule="evenodd" d="M22.1584 61.9326C21.885 61.9326 21.6116 61.9326 21.4749 61.6592C21.0647 61.249 21.0647 60.5654 21.4749 60.292L25.303 56.4639C25.7131 56.0537 26.26 56.0537 26.6702 56.4639C27.0803 56.874 27.0803 57.5576 26.6702 57.9678L22.842 61.6592C22.7053 61.9326 22.4319 61.9326 22.1584 61.9326Z" fill="white"/>
<path fill-rule="evenodd" clip-rule="evenodd" d="M26.1233 64.9404C25.8499 64.9404 25.5764 64.8037 25.4397 64.667C25.0295 64.2568 25.0295 63.5732 25.4397 63.1631L27.6272 60.9756C28.0374 60.5654 28.7209 60.5654 29.1311 60.9756C29.5413 61.3857 29.5413 62.0693 29.1311 62.4795L26.9436 64.667C26.6702 64.8037 26.3967 64.9404 26.1233 64.9404Z" fill="white"/>
<path fill-rule="evenodd" clip-rule="evenodd" d="M59.4842 51.543C57.2967 51.543 55.2459 50.3125 54.1522 48.3984L47.5897 36.9141C45.8123 33.9062 46.9061 30.0781 49.9139 28.4375L54.5623 25.7031C55.5194 25.1562 56.6131 24.8828 57.7069 24.8828C59.8944 24.8828 61.9451 26.1133 63.0389 28.0273L69.6014 39.375C71.242 42.3828 70.285 46.2109 67.2772 47.9883L62.6287 50.5859C61.6717 51.1328 60.578 51.543 59.4842 51.543ZM57.7069 26.9336C56.8865 26.9336 56.203 27.0703 55.6561 27.4805L50.8709 30.2148C48.9569 31.3086 48.1365 33.9062 49.367 35.8203L55.9295 47.3047C56.6131 48.6719 57.9803 49.3555 59.4842 49.3555C60.1678 49.3555 60.9881 49.2188 61.535 48.8086L66.3201 46.2109C68.2342 44.9805 68.9178 42.5195 67.824 40.4688L61.2615 28.9844C60.578 27.7539 59.074 26.9336 57.7069 26.9336Z" fill="white"/>
<path fill-rule="evenodd" clip-rule="evenodd" d="M7.12062 56.875C6.71046 56.875 6.30031 56.875 5.89015 56.6016L3.01906 55.6445C0.968274 54.9609 -0.125476 52.6367 0.694837 50.7227L6.71046 33.9062C7.25734 32.2656 8.76124 31.3086 10.4019 31.3086C10.812 31.3086 11.2222 31.3086 11.6323 31.582L14.5034 32.5391C16.5542 33.2227 17.5112 35.5469 16.8276 37.4609L10.812 54.2773C10.2651 55.7812 8.76124 56.875 7.12062 56.875ZM10.4019 33.3594C9.58156 33.3594 8.89796 33.9062 8.62452 34.5898L2.6089 51.4062C2.19874 52.3633 2.74562 53.3203 3.70265 53.7305L6.57374 54.6875C6.71046 54.8242 6.9839 54.8242 7.12062 54.8242C7.94093 54.8242 8.62452 54.2773 8.89796 53.5938L14.9136 36.7773C15.187 35.8203 14.7769 34.8633 13.8198 34.4531L10.9487 33.4961C10.812 33.3594 10.5386 33.3594 10.4019 33.3594Z" fill="white"/>
<path fill-rule="evenodd" clip-rule="evenodd" d="M60.9888 45.8008C59.7583 45.8008 58.5278 45.1172 57.981 44.0234C57.5708 43.3398 57.4341 42.3828 57.5708 41.4258C57.8442 40.6055 58.3911 39.7852 59.2114 39.375C59.7583 38.9648 60.3052 38.8281 60.9888 38.8281C62.2192 38.8281 63.313 39.5117 63.9966 40.6055C64.4067 41.4258 64.5435 42.3828 64.4067 43.2031C64.1333 44.1602 63.5864 44.8438 62.7661 45.3906C62.2192 45.6641 61.5356 45.8008 60.9888 45.8008ZM60.9888 40.8789C60.7153 40.8789 60.4419 41.0156 60.3052 41.1523C59.895 41.2891 59.7583 41.5625 59.6216 41.9727C59.4849 42.3828 59.6216 42.6562 59.7583 43.0664C60.0317 43.4766 60.4419 43.75 60.9888 43.75C61.2622 43.75 61.5356 43.75 61.6724 43.6133C62.0825 43.3398 62.2192 43.0664 62.356 42.6562C62.4927 42.3828 62.356 41.9727 62.2192 41.6992C61.9458 41.1523 61.5356 40.8789 60.9888 40.8789Z" fill="white"/>
<path fill-rule="evenodd" clip-rule="evenodd" d="M35.4202 15.1758C35.1467 15.1758 34.8733 15.0391 34.7366 14.9023L32.9592 13.125C32.5491 12.7148 32.5491 12.0312 32.9592 11.6211C33.2327 11.2109 33.9163 11.2109 34.3264 11.6211L35.4202 12.7148L39.1116 8.88672C39.5217 8.61328 40.2053 8.61328 40.6155 8.88672C41.0256 9.29688 41.0256 9.98047 40.6155 10.3906L36.1038 14.9023C35.967 15.0391 35.6936 15.1758 35.4202 15.1758Z" fill="#ED719B"/>
<path fill-rule="evenodd" clip-rule="evenodd" d="M36.7881 19.5508C32.5498 19.5508 29.1318 16.1328 29.1318 11.8945C29.1318 7.65625 32.5498 4.23828 36.7881 4.23828C40.8896 4.23828 44.3076 7.65625 44.3076 11.8945C44.3076 16.1328 40.8896 19.5508 36.7881 19.5508ZM36.7881 6.42578C33.6436 6.42578 31.1826 8.88672 31.1826 11.8945C31.1826 14.9023 33.6436 17.5 36.7881 17.5C39.7959 17.5 42.2568 14.9023 42.2568 11.8945C42.2568 8.88672 39.7959 6.42578 36.7881 6.42578Z" fill="#ED719B"/>
<path fill-rule="evenodd" clip-rule="evenodd" d="M31.1826 29.668C31.0459 29.668 30.9092 29.5312 30.7725 29.5312C30.3623 29.3945 30.0889 28.9844 30.0889 28.5742V22.832H28.0381C25.9873 22.832 24.3467 21.1914 24.3467 19.1406V4.64844C24.3467 2.59766 25.9873 0.957031 28.0381 0.957031H45.5381C47.4521 0.957031 49.0928 2.59766 49.0928 4.64844V19.1406C49.0928 21.1914 47.4521 22.832 45.5381 22.832H38.4287L31.8662 29.2578C31.7295 29.5312 31.4561 29.668 31.1826 29.668ZM28.0381 3.00781C27.0811 3.00781 26.3975 3.69141 26.3975 4.64844V19.1406C26.3975 20.0977 27.0811 20.7812 28.0381 20.7812H31.1826C31.7295 20.7812 32.1396 21.1914 32.1396 21.7383V26.1133L37.1982 21.0547C37.335 20.918 37.6084 20.7812 37.8818 20.7812H45.5381C46.3584 20.7812 47.042 20.0977 47.042 19.1406V4.64844C47.042 3.69141 46.3584 3.00781 45.5381 3.00781H28.0381Z" fill="#ED719B"/>
</g>
<defs>
<clipPath id="clip0_2_1249">
<rect width="70" height="70" fill="white" transform="translate(0.420898)"/>
</clipPath>
</defs>
</svg>
