<svg width="71" height="70" viewBox="0 0 71 70" fill="none" xmlns="http://www.w3.org/2000/svg">
<path fill-rule="evenodd" clip-rule="evenodd" d="M61.1165 33.9212C60.5216 34.0216 60.12 34.5856 60.2204 35.1816C60.4575 36.5829 60.5771 37.9929 60.5771 39.375C60.5771 47.0843 57.141 54.0429 51.6047 58.6762C50.6378 52.3983 46.1806 47.363 40.2617 45.5611C42.6149 43.9914 44.1709 41.3168 44.1709 38.2812C44.1709 33.4555 40.2456 29.5312 35.4209 29.5312C30.5962 29.5312 26.6709 33.4555 26.6709 38.2812C26.6709 41.3168 28.2269 43.9914 30.5801 45.5611C24.6612 47.363 20.204 52.3983 19.2371 58.6762C13.7008 54.0429 10.2646 47.0843 10.2646 39.375C10.2646 37.9929 10.3843 36.5829 10.6214 35.1816C10.7218 34.5856 10.3202 34.0216 9.72525 33.9212C9.11642 33.8187 8.56528 34.2224 8.46381 34.8184C8.20746 36.3373 8.07715 37.8711 8.07715 39.375C8.07715 52.8076 17.671 64.1446 30.8889 66.3321C30.9487 66.3428 31.0096 66.347 31.0683 66.347C31.5938 66.347 32.0574 65.9668 32.1461 65.4327C32.2454 64.8367 31.8416 64.2728 31.2456 64.1745C27.56 63.5645 24.1882 62.171 21.2682 60.1943C21.7959 52.7717 27.8962 47.0312 35.4209 47.0312C42.9456 47.0312 49.0459 52.7717 49.5736 60.1943C46.6536 62.171 43.2818 63.5645 39.5962 64.1745C39.0002 64.2728 38.5964 64.8367 38.6957 65.4327C38.7844 65.9668 39.248 66.347 39.7735 66.347C39.8322 66.347 39.8931 66.3428 39.9529 66.3321C53.1708 64.1446 62.7646 52.8076 62.7646 39.375C62.7646 37.8711 62.6343 36.3373 62.378 34.8184C62.2765 34.2224 61.719 33.8165 61.1165 33.9212ZM28.8584 38.2812C28.8584 34.6625 31.8021 31.7188 35.4209 31.7188C39.0397 31.7188 41.9834 34.6625 41.9834 38.2812C41.9834 41.9 39.0397 44.8438 35.4209 44.8438C31.8021 44.8438 28.8584 41.9 28.8584 38.2812Z" fill="white"/>
<path fill-rule="evenodd" clip-rule="evenodd" d="M47.3987 11.9838C47.2695 11.5864 46.9277 11.298 46.5154 11.2382L39.5267 10.2235L36.4014 3.88959C36.0339 3.14618 34.8078 3.14618 34.4403 3.88959L31.315 10.2235L24.3263 11.2382C23.914 11.298 23.5722 11.5864 23.443 11.9838C23.3148 12.379 23.4216 12.8148 23.7196 13.1053L28.7772 18.0336L27.583 24.9934C27.5125 25.4057 27.6813 25.8201 28.0177 26.0637C28.3563 26.3093 28.8017 26.3456 29.1702 26.147L35.4208 22.8593L41.6715 26.147C41.8317 26.2324 42.0068 26.273 42.181 26.273C42.4074 26.273 42.6328 26.2025 42.824 26.0637C43.1604 25.8201 43.3292 25.4057 43.2587 24.9934L42.0645 18.0336L47.122 13.1053C47.4201 12.8148 47.5269 12.379 47.3987 11.9838ZM40.1259 16.8672C39.8685 17.1193 39.751 17.4803 39.8119 17.837L40.7283 23.1797L35.9303 20.6569C35.7701 20.5735 35.596 20.5308 35.4208 20.5308C35.2457 20.5308 35.0716 20.5735 34.9114 20.6569L30.1134 23.1797L31.0298 17.837C31.0907 17.4803 30.9732 17.1193 30.7158 16.8672L26.8343 13.0861L32.1983 12.3063C32.5551 12.2529 32.8627 12.0308 33.0219 11.7082L35.4208 6.84613L37.8198 11.7082C37.979 12.0308 38.2866 12.2529 38.6434 12.3063L44.0074 13.0861L40.1259 16.8672Z" fill="#ED719B"/>
<path fill-rule="evenodd" clip-rule="evenodd" d="M9.24776 29.582C9.17726 29.9943 9.34602 30.4088 9.68248 30.6523C10.0221 30.8979 10.4686 30.9321 10.835 30.7356L15.7334 28.1593L20.6317 30.7356C20.7919 30.821 20.9671 30.8616 21.1412 30.8616C21.3677 30.8616 21.593 30.7911 21.7842 30.6523C22.1207 30.4088 22.2894 29.9943 22.2189 29.582L21.2833 24.1282L25.2471 20.2659C25.5451 19.9754 25.6519 19.5396 25.5237 19.1444C25.3945 18.7471 25.0527 18.4587 24.6404 18.3989L19.1631 17.6042L16.7139 12.6396C16.3464 11.8962 15.1203 11.8962 14.7528 12.6396L12.3036 17.6042L6.82634 18.3989C6.41405 18.4587 6.07225 18.7471 5.94301 19.1444C5.81483 19.5396 5.92165 19.9754 6.21965 20.2659L10.1834 24.1282L9.24776 29.582ZM9.33427 20.2467L13.187 19.687C13.5437 19.6336 13.8513 19.4114 14.0105 19.0889L15.7334 15.5961L17.4562 19.0889C17.6154 19.4114 17.923 19.6336 18.2797 19.687L22.1324 20.2467L19.3446 22.9619C19.0872 23.2139 18.9697 23.575 19.0306 23.9317L19.6886 27.7684L16.2428 25.9568C16.0826 25.8735 15.9085 25.8308 15.7334 25.8308C15.5582 25.8308 15.3841 25.8735 15.2239 25.9568L11.7781 27.7684L12.4361 23.9317C12.497 23.575 12.3795 23.2139 12.1221 22.9619L9.33427 20.2467Z" fill="#ED719B"/>
<path fill-rule="evenodd" clip-rule="evenodd" d="M64.0154 18.3989L58.5381 17.6042L56.0889 12.6396C55.7214 11.8962 54.4953 11.8962 54.1278 12.6396L51.6786 17.6042L46.2013 18.3989C45.789 18.4587 45.4472 18.7471 45.318 19.1444C45.1898 19.5396 45.2966 19.9754 45.5946 20.2659L49.5584 24.1282L48.6228 29.582C48.5523 29.9943 48.721 30.4088 49.0575 30.6523C49.3961 30.8979 49.8415 30.9321 50.21 30.7356L55.1084 28.1593L60.0067 30.7356C60.1669 30.821 60.3421 30.8616 60.5162 30.8616C60.7427 30.8616 60.968 30.7911 61.1592 30.6523C61.4957 30.4088 61.6644 29.9943 61.5939 29.582L60.6583 24.1282L64.6221 20.2659C64.9201 19.9754 65.0269 19.5396 64.8987 19.1444C64.7695 18.7471 64.4277 18.4587 64.0154 18.3989ZM58.7196 22.9619C58.4622 23.2139 58.3447 23.575 58.4056 23.9317L59.0636 27.7684L55.6178 25.9568C55.4576 25.8735 55.2835 25.8308 55.1084 25.8308C54.9332 25.8308 54.7591 25.8735 54.5989 25.9568L51.1531 27.7684L51.8111 23.9317C51.872 23.575 51.7545 23.2139 51.4971 22.9619L48.7093 20.2467L52.562 19.687C52.9187 19.6336 53.2263 19.4114 53.3855 19.0889L55.1084 15.5961L56.8312 19.0889C56.9904 19.4114 57.298 19.6336 57.6547 19.687L61.5074 20.2467L58.7196 22.9619Z" fill="#ED719B"/>
<path d="M35.4209 66.7188C36.025 66.7188 36.5146 66.2291 36.5146 65.625C36.5146 65.0209 36.025 64.5312 35.4209 64.5312C34.8168 64.5312 34.3271 65.0209 34.3271 65.625C34.3271 66.2291 34.8168 66.7188 35.4209 66.7188Z" fill="white"/>
</svg>
