<svg width="22" height="23" viewBox="0 0 22 23" fill="none" xmlns="http://www.w3.org/2000/svg">
<g clip-path="url(#clip0_2_1299)">
<path d="M21.974 2.13405C21.9263 1.26015 21.2313 0.565213 20.3574 0.517518C18.5941 0.421182 15.1435 0.514897 11.844 2.22149C10.162 3.09152 8.3831 4.56659 6.96345 6.2685C6.94597 6.28947 6.92895 6.31056 6.91159 6.33158L3.68979 6.58045C3.15947 6.62144 2.68712 6.89941 2.39381 7.34302L0.19579 10.6676C-0.0266592 11.004 -0.0620225 11.4251 0.10113 11.7939C0.264325 12.1627 0.599653 12.4198 0.998189 12.4815L3.71257 12.9019C3.70299 12.9547 3.69336 13.0074 3.68455 13.0602C3.59419 13.6007 3.77328 14.1565 4.1637 14.5469L7.9446 18.3278C8.26829 18.6515 8.70567 18.8299 9.15383 18.8299C9.24613 18.8299 9.33894 18.8223 9.43132 18.8069C9.48409 18.7981 9.53681 18.7885 9.58958 18.7789L10.01 21.4933C10.0717 21.8919 10.3288 22.2272 10.6975 22.3904C10.851 22.4583 11.0133 22.4918 11.175 22.4918C11.402 22.4917 11.6274 22.4257 11.8239 22.2958L15.1484 20.0977C15.5921 19.8043 15.87 19.332 15.9109 18.8017L16.1598 15.58C16.1808 15.5626 16.202 15.5456 16.2229 15.5281C17.9249 14.1084 19.4 12.3295 20.27 10.6475C21.9767 7.34787 22.0702 3.89727 21.974 2.13405ZM14.4375 19.0224L11.2574 21.1249L10.8476 18.4796C12.1917 18.0844 13.5213 17.4515 14.7879 16.6036L14.6258 18.7024C14.6157 18.8333 14.5471 18.95 14.4375 19.0224ZM8.8561 17.4163L5.07515 13.6354C4.97868 13.5389 4.93408 13.4033 4.95595 13.2727C5.06836 12.6005 5.24303 11.9607 5.45925 11.3579L11.1323 17.031C10.4084 17.2903 9.75995 17.445 9.21875 17.5355C9.08796 17.5572 8.95256 17.5128 8.8561 17.4163ZM3.7891 7.86569L5.88786 7.70357C5.03992 8.97024 4.40699 10.2998 4.0118 11.6439L1.36647 11.2342L3.46911 8.05398C3.54155 7.94441 3.65821 7.87579 3.7891 7.86569ZM15.3973 14.5381C14.3561 15.4067 13.3453 16.0349 12.4137 16.4894L6.00181 10.0776C6.59727 8.8614 7.32401 7.84867 7.95333 7.09423C9.2671 5.51921 10.9011 4.16049 12.4363 3.36643C15.4645 1.80009 18.655 1.71574 20.2872 1.8046C20.5033 1.81638 20.6751 1.98821 20.6869 2.2043C20.7759 3.8366 20.6914 7.02703 19.125 10.0552C18.331 11.5904 16.9723 13.2244 15.3973 14.5381Z" fill="white"/>
<path d="M15.07 10.6425C15.8951 10.6424 16.7205 10.3283 17.3487 9.70016C17.9574 9.09151 18.2925 8.28223 18.2925 7.42148C18.2925 6.56073 17.9573 5.75146 17.3487 5.14281C16.0922 3.88627 14.0477 3.88636 12.7913 5.14281C12.1826 5.75146 11.8474 6.56073 11.8474 7.42148C11.8474 8.28223 12.1827 9.09151 12.7913 9.70016C13.4196 10.3284 14.2446 10.6426 15.07 10.6425ZM13.7027 6.05426C14.0796 5.6773 14.5748 5.48884 15.0699 5.48884C15.5651 5.48884 16.0602 5.6773 16.4371 6.05426C16.8023 6.41945 17.0034 6.905 17.0034 7.42144C17.0034 7.93788 16.8023 8.42347 16.4371 8.78866C15.6833 9.54255 14.4566 9.54251 13.7027 8.78866C13.3375 8.42347 13.1363 7.93793 13.1363 7.42148C13.1363 6.90504 13.3375 6.41945 13.7027 6.05426Z" fill="white"/>
<path d="M0.657449 18.6212C0.822406 18.6212 0.987363 18.5583 1.11318 18.4324L3.21748 16.3281C3.46919 16.0764 3.46919 15.6683 3.21748 15.4166C2.96582 15.1649 2.5577 15.1649 2.30599 15.4166L0.201723 17.5209C-0.0499883 17.7726 -0.0499883 18.1807 0.201723 18.4324C0.327535 18.5582 0.492492 18.6212 0.657449 18.6212Z" fill="white"/>
<path d="M5.14596 17.3463C4.89429 17.0945 4.48617 17.0945 4.23446 17.3463L0.188783 21.392C-0.0629277 21.6437 -0.0629277 22.0518 0.188783 22.3035C0.314639 22.4293 0.479553 22.4922 0.64451 22.4922C0.809467 22.4922 0.974424 22.4293 1.10024 22.3034L5.14592 18.2577C5.39767 18.006 5.39767 17.598 5.14596 17.3463Z" fill="white"/>
<path d="M6.16297 19.274L4.05866 21.3783C3.80695 21.63 3.80695 22.0381 4.05866 22.2898C4.18451 22.4156 4.34947 22.4786 4.51438 22.4786C4.6793 22.4786 4.8443 22.4157 4.97011 22.2898L7.07442 20.1855C7.32613 19.9338 7.32613 19.5257 7.07442 19.274C6.82275 19.0223 6.41463 19.0223 6.16297 19.274Z" fill="white"/>
</g>
<defs>
<clipPath id="clip0_2_1299">
<rect width="22" height="22" fill="white" transform="translate(0 0.491455)"/>
</clipPath>
</defs>
</svg>
