<svg width="34" height="34" viewBox="0 0 34 34" fill="none" xmlns="http://www.w3.org/2000/svg">
<path d="M29.1253 5.43452L4.50486 14.9286C2.82461 15.6035 2.83433 16.5408 4.19658 16.9588L10.5176 18.9306L25.1427 9.70318C25.8342 9.28242 26.4661 9.50877 25.9467 9.96979L14.0975 20.6636H14.0948L14.0975 20.665L13.6615 27.1805C14.3003 27.1805 14.5822 26.8875 14.9404 26.5417L18.0107 23.5562L24.397 28.2734C25.5746 28.9218 26.4203 28.5886 26.7133 27.1833L30.9055 7.42582C31.3346 5.7053 30.2487 4.92628 29.1253 5.43452Z" fill="#0046FF"/>
<path d="M29.1253 5.43452L4.50486 14.9286C2.82461 15.6035 2.83433 16.5408 4.19658 16.9588L10.5176 18.9306L25.1427 9.70318C25.8342 9.28242 26.4661 9.50877 25.9467 9.96979L14.0975 20.6636H14.0948L14.0975 20.665L13.6615 27.1805C14.3003 27.1805 14.5822 26.8875 14.9404 26.5417L18.0107 23.5562L24.397 28.2734C25.5746 28.9218 26.4203 28.5886 26.7133 27.1833L30.9055 7.42582C31.3346 5.7053 30.2487 4.92628 29.1253 5.43452Z" fill="url(#paint0_linear_2_855)"/>
<defs>
<linearGradient id="paint0_linear_2_855" x1="3.20703" y1="16.9363" x2="31.0014" y2="16.9363" gradientUnits="userSpaceOnUse">
<stop stop-color="#ED6EA0"/>
<stop offset="1" stop-color="#EC8C69"/>
</linearGradient>
</defs>
</svg>
