<svg width="34" height="34" viewBox="0 0 34 34" fill="none" xmlns="http://www.w3.org/2000/svg">
<path d="M30.5806 8.54706C29.5847 8.97666 28.5009 9.28585 27.3846 9.40627C28.5436 8.71771 29.4115 7.62991 29.8255 6.34694C28.738 6.99392 27.5465 7.4476 26.3041 7.68784C25.7848 7.13269 25.1567 6.69043 24.459 6.38863C23.7613 6.08682 23.009 5.93193 22.2488 5.93361C19.1732 5.93361 16.6997 8.42664 16.6997 11.486C16.6997 11.9156 16.7518 12.3452 16.8364 12.7585C12.2311 12.5177 8.12382 10.3176 5.3932 6.94904C4.89566 7.79887 4.63493 8.7665 4.63814 9.75126C4.63814 11.678 5.61777 13.3769 7.11164 14.3761C6.23128 14.3414 5.37154 14.0994 4.60234 13.6698V13.7382C4.60234 16.4362 6.50954 18.6721 9.05138 19.1864C8.57412 19.3103 8.08316 19.3738 7.59006 19.3751C7.2288 19.3751 6.88707 19.3393 6.54208 19.2905C7.24508 21.4906 9.29222 23.0886 11.7299 23.1407C9.82272 24.6346 7.43384 25.5133 4.83992 25.5133C4.37451 25.5133 3.9449 25.497 3.49902 25.445C5.95951 27.0235 8.87889 27.9348 12.0228 27.9348C22.2293 27.9348 27.8142 19.4793 27.8142 12.1401C27.8142 11.8993 27.8142 11.6585 27.7979 11.4176C28.8784 10.6268 29.8255 9.64711 30.5806 8.54706Z" fill="#0046FF"/>
<path d="M30.5806 8.54706C29.5847 8.97666 28.5009 9.28585 27.3846 9.40627C28.5436 8.71771 29.4115 7.62991 29.8255 6.34694C28.738 6.99392 27.5465 7.4476 26.3041 7.68784C25.7848 7.13269 25.1567 6.69043 24.459 6.38863C23.7613 6.08682 23.009 5.93193 22.2488 5.93361C19.1732 5.93361 16.6997 8.42664 16.6997 11.486C16.6997 11.9156 16.7518 12.3452 16.8364 12.7585C12.2311 12.5177 8.12382 10.3176 5.3932 6.94904C4.89566 7.79887 4.63493 8.7665 4.63814 9.75126C4.63814 11.678 5.61777 13.3769 7.11164 14.3761C6.23128 14.3414 5.37154 14.0994 4.60234 13.6698V13.7382C4.60234 16.4362 6.50954 18.6721 9.05138 19.1864C8.57412 19.3103 8.08316 19.3738 7.59006 19.3751C7.2288 19.3751 6.88707 19.3393 6.54208 19.2905C7.24508 21.4906 9.29222 23.0886 11.7299 23.1407C9.82272 24.6346 7.43384 25.5133 4.83992 25.5133C4.37451 25.5133 3.9449 25.497 3.49902 25.445C5.95951 27.0235 8.87889 27.9348 12.0228 27.9348C22.2293 27.9348 27.8142 19.4793 27.8142 12.1401C27.8142 11.8993 27.8142 11.6585 27.7979 11.4176C28.8784 10.6268 29.8255 9.64711 30.5806 8.54706Z" fill="url(#paint0_linear_2_847)"/>
<defs>
<linearGradient id="paint0_linear_2_847" x1="3.49902" y1="16.9342" x2="30.5806" y2="16.9342" gradientUnits="userSpaceOnUse">
<stop stop-color="#ED6EA0"/>
<stop offset="1" stop-color="#EC8C69"/>
</linearGradient>
</defs>
</svg>
