<svg width="123" height="122" viewBox="0 0 123 122" fill="none" xmlns="http://www.w3.org/2000/svg">
<path d="M53.8203 4.39778C58.5338 1.67643 64.3412 1.67643 69.0547 4.39779L106.594 26.071C111.307 28.7923 114.211 33.8216 114.211 39.2643V82.6107C114.211 88.0534 111.307 93.0827 106.594 95.804L69.0547 117.477C64.3412 120.199 58.5338 120.199 53.8203 117.477L16.2813 95.804C11.5677 93.0827 8.66408 88.0534 8.66408 82.6107V39.2643C8.66408 33.8216 11.5677 28.7923 16.2813 26.071L53.8203 4.39778Z" fill="#1D2022" stroke="url(#paint0_linear_2_1165)"/>
<g clip-path="url(#clip0_2_1165)">
<path d="M67.0077 38C57.6387 38 50.0166 45.6013 50.0166 54.9446C50.0166 64.288 57.6387 71.8893 67.0077 71.8893C76.3766 71.8893 83.9988 64.288 83.9988 54.9446C83.9987 45.6013 76.3765 38 67.0077 38ZM67.0077 69.2506C59.0937 69.2506 52.6553 62.833 52.6553 54.9446C52.6553 47.0563 59.0937 40.6387 67.0077 40.6387C74.9217 40.6387 81.3601 47.0563 81.3601 54.9446C81.3601 62.8329 74.9216 69.2506 67.0077 69.2506Z" fill="white"/>
<path d="M68.327 46.4062H65.6884V56.2645H75.5681V53.6258H68.327V46.4062Z" fill="white"/>
<path d="M40.2656 69.8848L47.3217 62.8487L49.1846 64.7168L42.1285 71.7529L40.2656 69.8848Z" fill="white"/>
<path d="M39.0002 61.168L45.496 54.6906L47.3589 56.5588L40.8631 63.0361L39.0002 61.168Z" fill="white"/>
<path d="M59.0167 81.127L65.5125 74.6495L67.3754 76.5177L60.8796 82.9951L59.0167 81.127Z" fill="white"/>
<path d="M42.1539 77.9806L50.4001 69.7578L52.263 71.6259L44.0168 79.8488L42.1539 77.9806Z" fill="white"/>
<path d="M50.2738 79.8633L57.3298 72.8272L59.1927 74.6954L52.1367 81.7315L50.2738 79.8633Z" fill="white"/>
</g>
<defs>
<linearGradient id="paint0_linear_2_1165" x1="0.5" y1="60.9375" x2="122.375" y2="60.9375" gradientUnits="userSpaceOnUse">
<stop stop-color="#ED6EA0"/>
<stop offset="1" stop-color="#EC8C69"/>
</linearGradient>
<clipPath id="clip0_2_1165">
<rect width="45" height="45" fill="white" transform="translate(39 38)"/>
</clipPath>
</defs>
</svg>
