<svg width="123" height="122" viewBox="0 0 123 122" fill="none" xmlns="http://www.w3.org/2000/svg">
<path d="M53.4871 4.39778C58.2006 1.67643 64.0079 1.67643 68.7214 4.39779L106.26 26.071C110.974 28.7923 113.878 33.8216 113.878 39.2643V82.6107C113.878 88.0534 110.974 93.0827 106.26 95.804L68.7214 117.477C64.0079 120.199 58.2006 120.199 53.4871 117.477L15.948 95.804C11.2345 93.0827 8.33082 88.0534 8.33082 82.6107V39.2643C8.33082 33.8216 11.2345 28.7923 15.948 26.071L53.4871 4.39778Z" fill="#1D2022" stroke="url(#paint0_linear_2_1200)"/>
<g clip-path="url(#clip0_2_1200)">
<path d="M64.4883 83H58.5117C57.5425 83 56.7539 82.2114 56.7539 81.2422V78.6182C55.1001 78.1859 53.5219 77.5316 52.0463 76.666L50.1892 78.5231C49.5036 79.2083 48.3885 79.2083 47.7032 78.5231L43.4769 74.2968C42.7917 73.6115 42.7917 72.4964 43.4769 71.8111L45.334 69.9537C44.4684 68.4781 43.8141 66.8999 43.3818 65.2461H40.7578C39.7886 65.2461 39 64.4575 39 63.4883V57.5117C39 56.5425 39.7886 55.7539 40.7578 55.7539H43.376C43.8069 54.0974 44.4605 52.5164 45.3261 51.038L43.4769 49.1889C42.7917 48.5036 42.7917 47.3885 43.4769 46.7032L47.7032 42.4769C48.3885 41.7917 49.5036 41.7917 50.1892 42.4769L52.0318 44.3199C53.5116 43.4502 55.0946 42.7931 56.7539 42.3595V39.7578C56.7539 38.7886 57.5425 38 58.5117 38H64.4883C65.4575 38 66.2461 38.7886 66.2461 39.7578V42.3537C67.9078 42.7859 69.4939 43.4424 70.9761 44.3116L72.8111 42.4769C73.4964 41.7917 74.6115 41.7917 75.2968 42.4769L79.5231 46.7032C80.2083 47.3885 80.2083 48.5036 79.5231 49.1892L77.6884 51.0239C78.5576 52.5061 79.2141 54.0922 79.6463 55.7539H82.2422C83.2114 55.7539 84 56.5425 84 57.5117V63.4883C84 64.4575 83.2114 65.2461 82.2422 65.2461H79.6405C79.2069 66.9054 78.5494 68.4884 77.6801 69.9682L79.5227 71.8111C80.208 72.4964 80.208 73.6115 79.5227 74.2968L75.2968 78.5231C74.6115 79.2083 73.4964 79.2083 72.8108 78.5231L70.962 76.6739C69.4833 77.5395 67.9023 78.1931 66.2461 78.624V81.2422C66.2461 82.2114 65.4575 83 64.4883 83ZM51.9144 74.6758C52.0779 74.6758 52.2416 74.7211 52.3872 74.8138C54.0595 75.8815 55.8884 76.6399 57.8227 77.0681C58.2254 77.1573 58.5117 77.514 58.5117 77.9264V81.2422H64.4883V77.9312C64.4883 77.5185 64.7753 77.1615 65.1784 77.0729C67.1154 76.6465 68.947 75.8891 70.6221 74.8221C70.9695 74.6006 71.4244 74.6504 71.7159 74.9419L74.0539 77.2799L78.2799 73.0539L75.947 70.7211C75.6552 70.4292 75.6058 69.9736 75.8282 69.6259C76.8997 67.9504 77.6612 66.1171 78.0907 64.1773C78.1796 63.7746 78.5367 63.4883 78.9487 63.4883H82.2422V57.5117H78.9535C78.5408 57.5117 78.1838 57.2247 78.0952 56.8216C77.6678 54.8791 76.9076 53.043 75.8361 51.3649C75.6143 51.0171 75.6641 50.5622 75.9556 50.2704L78.2799 47.9461L74.0539 43.7201L71.7296 46.0444C71.4382 46.3359 70.9829 46.3857 70.6351 46.1639C68.957 45.0924 67.1209 44.3326 65.1784 43.9048C64.7753 43.8162 64.4883 43.4592 64.4883 43.0465V39.7578H58.5117V43.0513C58.5117 43.4636 58.2254 43.8204 57.823 43.9096C55.8829 44.3391 54.0496 45.1003 52.3741 46.1718C52.0267 46.3942 51.5708 46.3448 51.2793 46.053L48.9461 43.7201L44.7201 47.9461L47.0581 50.2844C47.3496 50.5756 47.3994 51.0305 47.1779 51.3779C46.1109 53.053 45.3535 54.8846 44.9271 56.8216C44.8385 57.2247 44.4815 57.5117 44.0688 57.5117H40.7578V63.4883H44.0736C44.486 63.4883 44.8427 63.775 44.9319 64.1773C45.3601 66.112 46.1188 67.9405 47.1862 69.6128C47.408 69.9606 47.3585 70.4158 47.0667 70.7073L44.7201 73.0539L48.9461 77.2802L51.2927 74.9333C51.4626 74.7637 51.6875 74.6758 51.9144 74.6758Z" fill="white"/>
<path d="M61.4999 73.3265C58.214 73.3265 54.9281 72.0754 52.4263 69.574C47.423 64.5707 47.423 56.4299 52.4263 51.4266C54.4443 49.4089 57.0031 48.1468 59.8259 47.7774C62.5591 47.4197 65.3809 47.9615 67.7724 49.3025C68.1958 49.5397 68.3465 50.0753 68.1092 50.4986C67.8717 50.9223 67.3361 51.073 66.9128 50.8354C62.6089 48.4218 57.1627 49.1761 53.6694 52.6698C49.3515 56.9874 49.3515 64.0132 53.6694 68.3311C55.8282 70.4896 58.6644 71.569 61.4999 71.5694C64.3361 71.5697 67.1716 70.4903 69.3308 68.3311C72.7067 64.9552 73.5427 59.8195 71.4106 55.5516C71.1937 55.1173 71.3698 54.5893 71.8041 54.3723C72.238 54.1553 72.7661 54.3318 72.9831 54.7661C75.4536 59.7113 74.4854 65.6625 70.5736 69.574C68.0718 72.0754 64.7859 73.3265 61.4999 73.3265Z" fill="white"/>
<path d="M70.144 53.1191C69.912 53.1191 69.6861 53.0258 69.5216 52.8613C69.3582 52.6979 69.2651 52.472 69.2651 52.2402C69.2651 52.0088 69.3582 51.7822 69.5216 51.6188C69.685 51.4551 69.912 51.3613 70.144 51.3613C70.3751 51.3613 70.6017 51.4551 70.7655 51.6188C70.9289 51.7822 71.0229 52.0088 71.0229 52.2402C71.0229 52.472 70.9289 52.6979 70.7655 52.8613C70.601 53.0258 70.3751 53.1191 70.144 53.1191Z" fill="white"/>
<path d="M60.2595 66.9747C60.0264 66.9747 59.8028 66.882 59.6381 66.7172L54.08 61.1588C53.7367 60.8158 53.7367 60.2593 54.08 59.916L57.2324 56.7633C57.3972 56.5985 57.6207 56.5061 57.8538 56.5061C58.0869 56.5061 58.3108 56.5985 58.4756 56.7633L60.2595 58.5475L64.5246 54.2828C64.8675 53.9394 65.4241 53.9394 65.7674 54.2828L68.9201 57.4355C69.2631 57.7785 69.2631 58.335 68.9201 58.6783L60.8812 66.7172C60.7161 66.882 60.4926 66.9747 60.2595 66.9747ZM55.9442 60.5374L60.2595 64.8526L67.0555 58.0569L65.146 56.1473L60.8812 60.4121C60.7164 60.5769 60.4926 60.6696 60.2595 60.6696C60.0264 60.6696 59.8028 60.5769 59.6381 60.4121L57.8538 58.6279L55.9442 60.5374Z" fill="white"/>
</g>
<defs>
<linearGradient id="paint0_linear_2_1200" x1="0.166748" y1="60.9375" x2="122.042" y2="60.9375" gradientUnits="userSpaceOnUse">
<stop stop-color="#ED6EA0"/>
<stop offset="1" stop-color="#EC8C69"/>
</linearGradient>
<clipPath id="clip0_2_1200">
<rect width="45" height="45" fill="white" transform="translate(39 38)"/>
</clipPath>
</defs>
</svg>
