<svg width="123" height="122" viewBox="0 0 123 122" fill="none" xmlns="http://www.w3.org/2000/svg">
<path d="M53.8203 4.39778C58.5338 1.67643 64.3412 1.67643 69.0547 4.39779L106.594 26.071C111.307 28.7923 114.211 33.8216 114.211 39.2643V82.6107C114.211 88.0534 111.307 93.0827 106.594 95.804L69.0547 117.477C64.3412 120.199 58.5338 120.199 53.8203 117.477L16.2813 95.804C11.5677 93.0827 8.66408 88.0534 8.66408 82.6107V39.2643C8.66408 33.8216 11.5677 28.7923 16.2813 26.071L53.8203 4.39778Z" fill="#141718" stroke="url(#paint0_linear_2_1213)"/>
<g clip-path="url(#clip0_2_1213)">
<path d="M80.84 57.6194C80.6677 52.7109 78.68 48.1209 75.1896 44.6305C71.5313 40.9715 66.6692 38.957 61.4998 38.957C51.0591 38.957 42.5281 47.2673 42.1603 57.6194C40.5671 58.3274 39.4519 59.9221 39.4519 61.7755V66.8816C39.4519 69.389 41.4917 71.4295 43.9997 71.4295C45.6225 71.4295 46.9423 70.1097 46.9423 68.4869V60.1696C46.9423 58.6459 45.7737 57.4035 44.288 57.2559C44.8364 48.2369 52.3444 41.0664 61.4998 41.0664C66.1067 41.0664 70.4386 42.8622 73.699 46.1226C76.6929 49.1165 78.4451 53.0188 78.7088 57.2566C77.2245 57.4056 76.058 58.6473 76.058 60.1696V68.4862C76.058 70.0225 77.2449 71.2727 78.7482 71.4027V73.5044C78.7482 75.8711 76.8223 77.7962 74.4556 77.7962H71.2767C71.1207 77.3505 70.876 76.9384 70.5328 76.5967C69.9317 75.9927 69.1301 75.6602 68.2765 75.6602H65C64.5296 75.6602 64.0782 75.76 63.6647 75.9527C62.5369 76.4709 61.8085 77.6085 61.8085 78.8509C61.8085 79.7045 62.141 80.5061 62.7436 81.1059C63.3462 81.7098 64.1478 82.0424 65 82.0424H68.2765C69.635 82.0424 70.8324 81.1642 71.2789 79.9056H74.4556C77.986 79.9056 80.8575 77.0341 80.8575 73.5044V71.0273C82.441 70.315 83.5477 68.7259 83.5477 66.8802V61.7741C83.5477 59.9221 82.4325 58.3274 80.84 57.6194ZM44.8322 60.1696V68.4862C44.8322 68.9453 44.4589 69.3194 43.999 69.3194C42.6546 69.3194 41.5606 68.2253 41.5606 66.8809V61.7748C41.5606 60.4298 42.6546 59.3364 43.999 59.3364C44.4589 59.3364 44.8322 59.7105 44.8322 60.1696ZM69.3347 79.0773C69.23 79.5737 68.7842 79.9345 68.2758 79.9345H64.9992C64.711 79.9345 64.4403 79.822 64.2335 79.6152C64.0296 79.412 63.9171 79.1406 63.9171 78.8523C63.9171 78.4312 64.1639 78.0466 64.5507 77.8687C64.6885 77.804 64.8396 77.7709 64.9992 77.7709H68.2758C68.5641 77.7709 68.8348 77.8827 69.0408 78.0895C69.2447 78.2927 69.3572 78.5641 69.3572 78.8523C69.3579 78.9297 69.3495 79.007 69.3347 79.0773ZM81.4383 66.8809C81.4383 68.2253 80.3442 69.3194 78.9999 69.3194C78.5407 69.3194 78.1667 68.946 78.1667 68.4862V60.1696C78.1667 59.7105 78.54 59.3364 78.9999 59.3364C80.3442 59.3364 81.4383 60.4305 81.4383 61.7748V66.8809Z" fill="white"/>
<path d="M68.3301 67.2435C70.7946 67.2435 72.7992 65.2382 72.7992 62.7745V53.6683C72.7992 52.4772 72.3337 51.355 71.4886 50.5098C70.6434 49.6647 69.5219 49.1992 68.3301 49.1992H54.6712C52.2068 49.1992 50.2021 51.2038 50.2021 53.6683V62.7745C50.2021 65.2389 52.2068 67.2435 54.6712 67.2435H54.7549V69.6032C54.7549 70.5032 55.2914 71.302 56.1211 71.6387C56.3889 71.7463 56.6674 71.7998 56.943 71.7998C57.5175 71.7998 58.0771 71.572 58.4871 71.148L62.4126 67.2435H68.3301ZM61.2349 65.4407L56.9866 69.6658C56.9676 69.6855 56.9536 69.7002 56.9135 69.6827C56.865 69.663 56.865 69.6313 56.865 69.6032V66.1888C56.865 65.6066 56.3932 65.1341 55.8103 65.1341H54.6719C53.3704 65.1341 52.3122 64.0752 52.3122 62.7745V53.6683C52.3122 52.3668 53.3704 51.3086 54.6719 51.3086H68.3308C68.9594 51.3086 69.5507 51.5547 69.9979 52.0012C70.4451 52.4484 70.6905 53.0404 70.6905 53.6683V62.7745C70.6905 64.0759 69.6316 65.1341 68.3308 65.1341H61.9788C61.6996 65.1341 61.4325 65.2445 61.2349 65.4407Z" fill="white"/>
<path d="M56.3763 56.834C55.5185 56.834 54.8203 57.5329 54.8203 58.39C54.8203 59.2471 55.5192 59.946 56.3763 59.946C57.2348 59.946 57.9337 59.2471 57.9337 58.39C57.9337 57.5329 57.2355 56.834 56.3763 56.834Z" fill="white"/>
<path d="M61.4989 56.834C60.6411 56.834 59.9429 57.5329 59.9429 58.39C59.9429 59.2471 60.6418 59.946 61.4989 59.946C62.3581 59.946 63.0563 59.2471 63.0563 58.39C63.0563 57.5329 62.3581 56.834 61.4989 56.834Z" fill="white"/>
<path d="M66.6217 56.834C65.7639 56.834 65.0657 57.5329 65.0657 58.39C65.0657 59.2471 65.7646 59.946 66.6217 59.946C67.4802 59.946 68.1791 59.2471 68.1791 58.39C68.1791 57.5329 67.4802 56.834 66.6217 56.834Z" fill="white"/>
</g>
<defs>
<linearGradient id="paint0_linear_2_1213" x1="0.5" y1="60.9375" x2="122.375" y2="60.9375" gradientUnits="userSpaceOnUse">
<stop stop-color="#ED6EA0"/>
<stop offset="1" stop-color="#EC8C69"/>
</linearGradient>
<clipPath id="clip0_2_1213">
<rect width="45" height="45" fill="white" transform="translate(39 38)"/>
</clipPath>
</defs>
</svg>
