<svg width="123" height="122" viewBox="0 0 123 122" fill="none" xmlns="http://www.w3.org/2000/svg">
<path d="M54.1536 4.39778C58.8671 1.67643 64.6744 1.67643 69.3879 4.39779L106.927 26.071C111.641 28.7923 114.544 33.8216 114.544 39.2643V82.6107C114.544 88.0534 111.641 93.0827 106.927 95.804L69.3879 117.477C64.6744 120.199 58.8671 120.199 54.1536 117.477L16.6145 95.804C11.901 93.0827 8.99733 88.0534 8.99733 82.6107V39.2643C8.99733 33.8216 11.901 28.7923 16.6145 26.071L54.1536 4.39778Z" fill="#141718" stroke="url(#paint0_linear_2_1182)"/>
<g clip-path="url(#clip0_2_1182)">
<path d="M79.9916 45.7705C73.8002 44.074 67.5724 41.4325 61.9814 38.1315C61.6844 37.9562 61.3159 37.9562 61.019 38.1315C55.2667 41.5273 49.3754 44.026 43.0082 45.7705C42.5969 45.8831 42.3118 46.257 42.3118 46.6835V56.3555C42.3118 66.3155 46.9066 72.9084 50.7613 76.6851C54.9111 80.7513 59.7451 83 61.5002 83C63.2551 83 68.0891 80.7513 72.2389 76.6851C76.0935 72.9084 80.6881 66.3156 80.6881 56.3555V46.6834C80.6881 46.257 80.403 45.8831 79.9916 45.7705ZM78.7949 56.3554C78.7949 65.658 74.5093 71.8099 70.9139 75.3327C66.833 79.3313 62.4699 81.1067 61.5002 81.1067C60.5305 81.1067 56.1671 79.3313 52.0862 75.3327C48.4908 71.8098 44.205 65.658 44.205 56.3554V47.402C50.2939 45.6732 55.9644 43.2605 61.5004 40.0435C66.8981 43.1752 72.8515 45.7078 78.7949 47.4017V56.3554Z" fill="white"/>
<path d="M53.1098 47.2972C52.9182 46.8107 52.3687 46.5717 51.8821 46.7634C50.1911 47.4297 48.4554 48.043 46.7234 48.5864C46.3287 48.7103 46.0601 49.0759 46.0601 49.4895V53.145C46.0601 53.6678 46.484 54.0916 47.0066 54.0916C47.5293 54.0916 47.9532 53.6678 47.9532 53.145V50.1813C49.507 49.6786 51.0592 49.1225 52.5761 48.5248C53.0626 48.3332 53.3015 47.7837 53.1098 47.2972Z" fill="white"/>
<path d="M54.9077 47.4752C55.0347 47.4752 55.1637 47.4497 55.2873 47.3957L55.3047 47.3881C55.7836 47.1783 55.9993 46.6208 55.7894 46.142C55.5794 45.6631 55.0187 45.4465 54.5403 45.6562L54.5251 45.6628C54.0459 45.872 53.8295 46.4291 54.0388 46.9081C54.1941 47.2637 54.5425 47.4752 54.9077 47.4752Z" fill="white"/>
<path d="M72.778 68.5234C72.3406 68.2375 71.754 68.3604 71.4678 68.798C70.6877 69.9919 69.7726 71.1352 68.7475 72.1958C67.9044 73.0678 66.9909 73.8807 66.0323 74.6115C65.6166 74.9284 65.5366 75.5224 65.8535 75.9382C66.0399 76.1824 66.3218 76.3109 66.6069 76.3109C66.8071 76.3109 67.0088 76.2477 67.1802 76.1169C68.2142 75.3285 69.1995 74.4519 70.1084 73.5117C71.2168 72.3652 72.2074 71.1277 73.0527 69.8336C73.3388 69.3959 73.2156 68.8093 72.778 68.5234Z" fill="white"/>
<path d="M63.834 76.0966L63.7797 76.1286C63.3273 76.3906 63.1727 76.9696 63.4346 77.422C63.6101 77.7252 63.9279 77.8945 64.2547 77.8945C64.4156 77.8945 64.5789 77.8535 64.728 77.7669L64.7907 77.7301C65.2418 77.4659 65.3933 76.886 65.1291 76.4349C64.8648 75.9839 64.2849 75.8327 63.834 76.0966Z" fill="white"/>
<path d="M55.0477 58.5683C54.4665 57.987 53.6935 57.667 52.8713 57.667C52.0492 57.667 51.2761 57.9871 50.6947 58.5683C49.4947 59.7685 49.4947 61.7214 50.6947 62.9216L56.2841 68.5109C56.8654 69.092 57.6384 69.412 58.4607 69.412C59.2829 69.412 60.0559 69.092 60.6373 68.5107L72.3057 56.8422C73.5056 55.6417 73.5056 53.689 72.3055 52.4892C71.7242 51.9079 70.9512 51.588 70.1289 51.588C69.3067 51.588 68.5337 51.908 67.9523 52.4892L58.4606 61.981L55.0477 58.5683ZM69.291 53.828C69.5147 53.6043 69.8124 53.4812 70.129 53.4812C70.4457 53.4812 70.7432 53.6043 70.967 53.828C71.4289 54.2899 71.4289 55.0417 70.9669 55.5037L59.2986 67.172C59.0749 67.3957 58.7772 67.5189 58.4607 67.5189C58.1441 67.5189 57.8464 67.3957 57.6226 67.172L52.0333 61.5829C51.5713 61.1209 51.5713 60.3691 52.0331 59.9072C52.2569 59.6835 52.5546 59.5602 52.8713 59.5602C53.1879 59.5602 53.4854 59.6833 53.7091 59.907L57.7912 63.9892C57.9688 64.1666 58.2095 64.2664 58.4606 64.2664C58.7117 64.2664 58.9523 64.1667 59.1298 63.9892L69.291 53.828Z" fill="white"/>
</g>
<defs>
<linearGradient id="paint0_linear_2_1182" x1="0.833252" y1="60.9375" x2="122.708" y2="60.9375" gradientUnits="userSpaceOnUse">
<stop stop-color="#ED6EA0"/>
<stop offset="1" stop-color="#EC8C69"/>
</linearGradient>
<clipPath id="clip0_2_1182">
<rect width="45" height="45" fill="white" transform="translate(39 38)"/>
</clipPath>
</defs>
</svg>
